<svg width="800" height="600" xmlns="http://www.w3.org/2000/svg" stroke="null">
 <g stroke="null">
  <title stroke="null">Layer 1</title>
  <path fill="none" stroke="#000" id="svg_1" d="m-150,108c0,-1 0,-2 0,-5l4,-6l6,-2"/>
  <path stroke="#000" d="m384.27553,57.99998c-2.49958,0 -6.24896,0 -8.74855,0c-4.99917,0 -8.74855,0 -9.99834,0c-6.24896,0 -13.5831,0.54585 -18.74689,3.78286c-3.65136,2.28892 -5.23164,1.30991 -7.49875,3.78286c-1.43386,1.56403 -3.74938,3.78286 -4.99917,5.67429c-1.24979,1.89143 -1.54302,4.07082 -2.49958,7.56571c-1.35277,4.94255 -3.74938,5.67429 -3.74938,9.45714c0,1.89143 0,7.56571 0,9.45714c0,1.89143 0,3.78286 0,5.67429c0,1.89143 0,5.67429 0,9.45714c0,1.89143 0,5.67429 0,7.56571c0,3.78286 2.49958,9.45714 8.74855,13.24c6.24896,3.78286 13.65496,6.61537 19.99668,7.56571c2.48742,0.37275 3.74938,0 4.99917,0c1.24979,0 3.74938,0 4.99917,0c4.99917,0 8.74855,0 13.74772,0c7.49875,0 11.24813,0 16.2473,0c4.99917,0 3.74938,0 1.24979,0c-1.24979,0 -2.49958,0 -4.99917,0c-7.49875,0 -8.74855,0 -9.99834,0c-1.24979,0 -7.49875,0 -14.99751,0c-7.49875,0 -12.49792,0 -14.99751,0c-2.49958,0 -6.30259,-0.54811 -7.49875,0c-4.31283,1.97622 -4.99917,5.67429 -7.49875,7.56571c-2.49958,1.89143 -6.91749,6.26205 -8.74855,9.45714c-2.58948,4.51855 -5.94315,11.59825 -8.74855,18.91429c-4.52356,11.79675 -9.01107,18.632 -12.49792,26.48c-4.06633,9.15226 -6.67782,14.89699 -8.74855,24.58857c-1.58543,7.42028 -3.74938,18.91429 -3.74938,26.48c0,5.67429 -2.49958,13.24 -2.49958,20.80572c0,3.78286 0,9.45714 0,13.24c0,5.67429 0,7.56571 0,13.24c0,1.89143 -0.45811,7.60823 0,13.24c0.62963,7.74012 2.29675,16.71592 6.24896,22.69714c1.9761,2.99063 5.59996,4.46253 7.49875,7.56571c4.95149,8.09211 10.09636,7.16824 13.74772,9.45714c5.16378,3.23701 8.649,7.88342 13.74772,11.34857c6.13969,4.17262 13.80355,7.11436 21.24647,9.45714c5.04505,1.58801 7.49875,1.89143 12.49792,3.78286c14.99751,5.67429 19.99668,5.67429 27.49543,5.67429c9.99834,0 21.24647,3.78286 33.74439,3.78286c6.24896,0 11.24813,0 22.49626,0c11.24813,0 23.74606,0 29.99502,0c4.99917,0 9.99834,-1.89143 23.74606,-5.67429l18.74689,0l11.24813,0l2.49958,0" id="svg_17" stroke-width="10" fill="none"/>
  <polyline stroke="#000" stroke-linecap="round" id="svg_18" points="355,38 355,39 " stroke-width="10" fill="none"/>
 </g>

</svg>