<svg width="800" height="600" xmlns="http://www.w3.org/2000/svg">

 <g>
  <title>Layer 1</title>
  <path d="m604,231c0,2 0,5 0,9c0,3 1,9 1,11c0,5 -0.24438,7.01498 0,9c0.50378,4.09222 2,6 2,9c0,5 0,8 0,10c0,3 0.64075,5.05164 0,9c-0.50653,3.12143 -1.56952,6.133 -3,10c-0.77582,2.09717 -0.41156,3.40402 -4,8c-0.8703,1.11469 -5,5 -6,6c-2,2 -3.18604,2.69254 -5,4c-3.44183,2.48071 -10.797,5.2565 -12,6c-2.69,1.66251 -4,1 -5,1c-2,0 -6,0 -8,0c-2,0 -2.69342,-0.4588 -4,-1c-0.92389,-0.38269 -1.34619,-0.70547 -3,-3c-1.30743,-1.814 -2.22272,-3.724 -6,-7c-1.06836,-0.92661 -2.48627,-2.82376 -3,-5c-0.45953,-1.9465 -0.48627,-3.82376 -1,-6c-0.22974,-0.97324 -1.4588,-3.69345 -2,-5c-0.76538,-1.84775 -0.49347,-5.87857 -1,-9c-0.16016,-0.98709 -0.51947,-4.03873 -1,-7c-0.50653,-3.12143 -0.54047,-4.0535 -1,-6c-0.51373,-2.17624 -0.46924,-4.30447 -2,-8c-0.5412,-1.30655 -1.49756,-2.92578 -2,-8c-0.19708,-1.99026 -1.98163,-3.71201 -3,-9c-0.56732,-2.94586 -0.48627,-4.82375 -1,-7c-0.45953,-1.9465 -1,-4 -1,-6c0,-1 0,0 0,1c0,1 0,2 0,4c0,1 0.78735,3.00755 1,6c0.50128,7.05328 1.70441,10.01459 2,13c0.50244,5.07422 1,7 1,9c0,4 0.49622,5.90778 1,10c0.24438,1.98502 1.49347,2.87857 2,6c0.16016,0.98709 0.85193,7.22836 2,10c0.5412,1.30655 2,5 2,7c0,2 -0.32037,4.02582 0,6c0.50653,3.12143 1,5 1,6c0,3 0.12219,5.00751 0,6c-0.50378,4.09222 -2,6 -4,8c-2,2 -1.16125,3.79626 -5,7c-1.71674,1.43277 -3.87854,2.49347 -7,3c-0.98706,0.16019 -1.92657,0.32083 -10,2c-5.95532,1.23862 -15.97119,2.49963 -29,3c-2.9978,0.11514 -6.00681,0.16495 -8,0c-6.06204,-0.50171 -19.07181,-1.69125 -24,-3c-3.05634,-0.81165 -5.1731,-2.85272 -6,-4c-1.30746,-1.814 -1.32367,-2.52017 -3,-4c-2.703,-2.38617 -2.77023,-5.02676 -3,-6c-1.0275,-4.35251 -2,-6 -3,-8c-2,-4 -2,-7 -2,-10c0,-1 -0.49347,-1.87857 -1,-5c-0.16019,-0.98709 -1,-2 -1,-5c0,-2 0.22977,-4.02676 0,-5c-0.51373,-2.17624 -2,-5 -2,-6c0,-3 -1.48627,-5.82376 -2,-8c-0.68927,-2.91974 -1,-8 -1,-9c0,-6 0,-9 0,-12c0,-5 -0.77023,-7.02675 -1,-8c-0.51373,-2.17625 0,-4 -1,-4c-1,0 0,2 0,3c0,1 0,3 0,5c0,3 0,6 1,10c2,8 1.69125,13.07181 3,18c1.62332,6.11267 4.49622,8.90778 5,13c0.12219,0.99249 0.22128,3.31854 3,9c1.58411,3.23892 2.49295,6.23401 5,11c1.67856,3.19098 4.513,8.59399 6,11c1.66251,2.69 3.13065,9.12872 4,12c1.04483,3.45084 4.19028,7.88153 6,11c1.12234,1.93399 2.69254,6.186 4,8c1.65381,2.29453 1.58578,2.58578 3,4c0.70709,0.70709 2,1 3,1c1,0 2,0 1,0c-1,0 -1.77023,0.02676 -2,1c-0.51373,2.17624 -1,3 -1,4c0,1 0.22977,2.02676 0,3c-0.51373,2.17624 -1.27347,4.9223 -2,8c-1.6246,6.8819 -0.6218,10.0361 -1,12c-1.01837,5.28799 -1.21664,8.5914 -4,14c-1.29425,2.51495 -3.14774,5.94342 -5,11c-1.08768,2.96933 -3.513,6.59399 -5,9c-1.66251,2.69 -5.20682,7.81265 -7,10c-2.28589,2.78833 -6.90634,7.10339 -8,8c-2.78833,2.28589 -5.07971,3.84796 -9,6c-5.11145,2.80591 -7.01498,2.75565 -9,3c-8.18442,1.00754 -13.97736,4.08105 -21,6c-22.92911,6.26544 -29.07748,5.03891 -35,6c-3.12143,0.50653 -7,1 -16,1c-8,0 -14,0 -21,0c-3,0 -7.87857,-2.49347 -11,-3c-3.94836,-0.64072 -8.85272,-3.1731 -10,-4c-1.814,-1.30746 -5,-5 -7,-8c-2,-3 -5.30322,-6.76935 -6,-8c-2.03146,-3.58792 -3.62021,-6.66891 -5,-10c-1.95132,-4.71088 -1.14429,-6.93414 -2,-9c-1.21014,-2.92157 0.5647,-6.3154 -2,-15c-0.6333,-2.1445 -1.49622,-3.90778 -2,-8c-0.24435,-1.98502 -1,-5 -1,-10c0,-4 -1,-6 -1,-11c0,-1 0,-3 0,-6c0,-2 0,-6 0,-8c0,-2 0,-7 0,-10c0,-4 0,-6 0,-7c0,-4 0,-6 0,-7c0,-3 0,-4 0,-7c0,-2 0,-4 0,-9c0,-4 0,-7 0,-11c0,-2 0,-4 0,-8c0,-2 1,-6 1,-7c0,-1 0.4588,-3.69345 1,-5c0.38269,-0.92389 0,-3 0,-4l0,-1l0,-1l0,-1" id="svg_80" stroke-width="10" stroke="#000" fill="none"/>
  <path id="svg_81" d="m483,360" opacity="NaN" stroke-width="10" stroke="#000" fill="none"/>
  <path d="m463,170c0,1 0,2 1,2c2,0 3,0 4,0c3,0 4.29291,-0.29289 5,-1c0.70709,-0.70711 2,0 2,-1c0,-1 0,-2 -1,-3c-1,-1 -2,-1 -3,-1c-1,0 -3,0 -4,0c-1,0 -1.29291,0.29289 -2,1c-0.70709,0.70711 -1.29291,0.29289 -2,1c-0.70709,0.70711 0,2 0,3c0,1 1,1 3,1c1,0 2,0 3,0c1,0 2,0 3,0c1,0 2,0 2,-1l0,-1" id="svg_82" stroke-width="10" stroke="#000" fill="none"/>
  <path d="m531,169c-2,0 -4.58582,-1.41422 -6,0c-0.70709,0.70711 -1,2 -1,3c0,1 0,2 0,3c0,1 1.07611,0.61731 2,1c1.30658,0.5412 2,1 3,1c1,0 2,0 3,0c2,0 3,0 4,0c1,0 2,0 3,0c1,0 1.29291,-0.29289 2,-1c0.70709,-0.70711 0.70709,-2.29289 0,-3c-0.70709,-0.70711 -1,-1 -2,-1c-1,0 -1,-1 -2,-1c-1,0 -2,0 -3,0c-1,0 -2,0 -3,0l-1,0l-1,0" id="svg_83" stroke-width="10" stroke="#000" fill="none"/>
  <path stroke="#000" d="m496.37313,132.1793c-0.59644,0 -1.19288,1.0895 -1.78931,1.0895c-0.59644,0 -0.59644,1.0895 -0.59644,2.17899c0,1.0895 0,2.17899 0,3.26849c0,1.0895 -0.18284,2.67886 0.59644,3.26849c0.55104,0.41694 1.19288,0 1.78931,0c0.59644,0 1.19288,0 1.78931,0c0.59644,0 1.01004,-0.49986 1.78931,-1.0895c0.55104,-0.41694 1.19288,-1.0895 1.78931,-1.0895c0.59644,0 0.77114,-0.31911 1.19288,-1.0895c0.42174,-0.77039 1.19288,-1.0895 1.19288,-2.17899c0,-1.0895 0.42174,-2.4981 0,-3.26849c-0.42174,-0.77039 -0.59644,-1.0895 -1.19288,-1.0895c-0.59644,0 -0.59644,-1.0895 -1.19288,-1.0895c-0.59644,0 -0.59644,-1.0895 -1.19288,-1.0895c-0.59644,0 -1.19288,0 -1.78931,0c-0.59644,0 -1.4829,-0.19203 -1.78931,2.17899c-0.13704,1.06035 -0.59644,2.17899 -0.59644,3.26849l0,1.0895" id="svg_84" stroke-width="10" fill="none"/>
 </g>
</svg>