<svg width="800" height="600" xmlns="http://www.w3.org/2000/svg">

 <g>
  <title>Layer 1</title>
  <path id="svg_81" d="m483,360" opacity="NaN" stroke-width="10" stroke="#000" fill="none"/>
  <path d="m546,275c-1,-4 -1.53375,-13.09662 -3,-19c-0.76227,-3.06903 -0.71643,-4.01006 -1,-8c-0.50128,-7.05328 -1.0675,-13.19321 -4,-25c-0.76227,-3.06903 -2,-7 -2,-8c0,-2 -2,-10 -3,-13c-1,-3 -2,-7 -2,-8c0,-1 -1,-3 -1,-4c0,-1 3.54913,-5.95517 7,-7c0.95709,-0.28978 3,-2 5,-2c1,0 2,0 4,0c3,0 4,0 5,0c5,0 7,0 8,0c3,0 4.25055,-1.10837 11,1c2.13434,0.66672 3.69342,1.4588 5,2c0.92389,0.38269 2.58582,-1.41422 4,0c0.70709,0.70711 1.18604,0.69255 3,2c1.14728,0.8269 2.14429,1.93414 3,4c1.21014,2.92157 3.14429,4.93414 4,7c1.21014,2.92157 2,6 2,8c0,5 0,7 0,9c0,4 0.16016,6.01291 0,7c-0.50653,3.12144 -1.95514,4.54915 -3,8c-0.57959,1.91418 -0.69257,2.186 -2,4c-0.8269,1.14726 -2.16125,2.79626 -6,6c-1.71674,1.43275 -5.05353,2.5405 -7,3c-2.17627,0.51375 -10,2 -12,2c-3,0 -9.0058,-0.18642 -12,0c-8.04669,0.50096 -15.93799,2.49829 -22,3c-6.97614,0.57736 -9.32367,0.47984 -11,-1c-2.703,-2.38617 -3,-3 -5,-5c-1,-1 -2.34619,-1.70546 -4,-4c-1.30746,-1.814 -2.98163,-3.71201 -4,-9c-0.56732,-2.94586 -0.34518,-7.17697 -2,-12c-0.72568,-2.11504 -0.70709,-1.70711 0,-1c0.70709,0.70711 0.29291,1.29289 1,2c0.70709,0.70711 2.19028,2.88152 4,6c1.12234,1.93399 3.67963,7.02582 4,9c0.50653,3.12144 2.67963,6.02582 3,8c0.50653,3.12144 1.91229,7.03067 3,10c1.85229,5.05659 2.49622,7.90778 3,12c0.6109,4.96252 1.48627,6.82376 2,9c1.37854,5.83951 0,9 0,14c0,4 0.40601,7.50433 -2,12c-1.33459,2.49374 -3.36481,6.48718 -15,21c-6.64929,8.29379 -20,18 -22,20c-1,1 -3.4079,3.95523 -11,8c-7.54062,4.01733 -16,5 -18,5c-4,0 -14,1 -16,1c-14,0 -22.16263,0.71033 -28,-1c-7.30853,-2.14139 -10.94623,-6.05682 -12,-7c-4.77115,-4.27039 -7.6965,-5.272 -14,-12c-3.41855,-3.64877 -6.75531,-7.13202 -9,-11c-1.80972,-3.11847 -3.54901,-4.60641 -7,-10c-1.20514,-1.88351 -3.19028,-7.88153 -5,-11c-1.12234,-1.93399 -3.11588,-6.96384 -4,-10c-1.15277,-3.95868 -1.63345,-14.02249 -2,-17c-0.50378,-4.09222 -1,-5 -1,-6c0,-2 0.11588,-3.96384 1,-7c1.15277,-3.95868 2,-6 2,-7c0,-3 -1.58795,-4.94572 -1,-11c0.82587,-8.504 5,-16 6,-29l0,-5l0,-2" id="svg_85" stroke-width="10" stroke="#000" fill="none"/>
  <path d="m536,138c0,0 -2,0 -4,0c-1,0 -1,1 -1,2c0,1 0,2 0,3c0,1 -0.70709,2.29289 0,3c0.70709,0.70711 1,1 2,1c1,0 2,0 3,0c1,0 2,0 3,0c1,0 2,0 3,0c1,0 2,0 3,0c1,0 2.29291,0.70711 3,0c0.70709,-0.70711 1,-1 1,-2c0,-2 0,-3 0,-4c0,-1 -1.4588,-0.69344 -2,-2c-0.38269,-0.92387 -1.29291,-0.29289 -2,-1c-0.70709,-0.70711 -1,-2 -2,-2c-1,0 -2,0 -3,0c-2,0 -3.15222,0.76537 -5,0c-1.30658,-0.5412 -2.29291,-1.70711 -3,-1c-0.70709,0.70711 -1,2 -1,3c0,1 0,2 0,3c0,1 1.29291,0.29289 2,1c0.70709,0.70711 1,1 2,1c1,0 2,0 3,0c1,0 2,0 3,0c1,0 2,0 3,0l-1,0l-1,0" id="svg_86" stroke-width="10" stroke="#000" fill="none"/>
 </g>
</svg>