<svg width="800" height="600" xmlns="http://www.w3.org/2000/svg">

 <g>
  <title>Layer 1</title>
  <path stroke="#000" d="m285,245c6,0 18.06079,1.64311 28,3.2585c10.08575,1.63921 20.98297,3.80145 43,4.34467c9.99741,0.24666 32.99463,-0.05373 42,-1.08617c9.99435,-1.14583 26.96262,-3.8009 37,-4.34467c15.98013,-0.86569 24,0 31,0c9,0 11.77023,-1.05711 12,0c0.51373,2.36378 -4.93665,2.40605 -8,3.2585c-10.83054,3.01384 -22.9606,6.63779 -68,23.89567c-19.98264,7.6568 -32.06863,12.07552 -42,19.551c-1.16238,0.87495 -5.63016,4.86992 -17,20.63717c-5.30435,7.35586 -10.586,20.50239 -12,29.32651c-1.72327,10.75417 -2.09116,33.73604 -1,44.53284c1.00601,9.95417 3.40411,27.26807 10,40.18817c9.62579,18.85508 18.84235,21.13657 27,23.89567c15.74664,5.32589 23.95847,5.97309 33,6.517c18.97092,1.14126 29,-1.08617 37,-2.17233c16,-2.17233 26,-4.34467 42,-6.517c8,-1.08617 15,-3.2585 25,-6.517l3,-1.08617l3,-1.08617" id="svg_63" stroke-width="10" fill="none"/>
 </g>
</svg>