<svg width="1012" height="506" xmlns="http://www.w3.org/2000/svg">
 <g id="Layer_1">
  <title>Layer 1</title>
  <path d="m795,276.39999c-1,-1 -0.29291,-2.29291 -1,-3c-0.70709,-0.70709 -1,-2 -2,-4c-1,-2 -0.83984,-3.01291 -1,-4c-0.50653,-3.12143 -0.51947,-4.03873 -1,-7c-0.50653,-3.12143 -0.75562,-7.01497 -1,-8.99998c-0.50378,-4.09221 -1,-7 -1,-9c0,-3 -0.24438,-7.01498 0,-9c0.50378,-4.09221 1.49622,-5.90779 2,-10c0.36658,-2.97752 1.22418,-6.90283 2,-9c1.43048,-3.867 1.13068,-7.12872 2,-10c1.04486,-3.45085 2.34619,-4.70546 4,-7c1.30743,-1.814 2.14935,-5.47427 3,-6c3.8042,-2.35114 4.52814,-6.11833 5,-7c1.70129,-3.17892 4.85272,-4.1731 6,-5c1.81396,-1.30745 4.82373,-3.48625 7,-4c1.94647,-0.4595 3.87854,-1.49345 7,-2c2.96124,-0.48055 6,0 9,0c2,0 5.05353,0.5405 7,1c2.17627,0.51375 5.46259,-0.24985 8,3c0.61542,0.78821 3.70544,2.34619 6,4c1.81396,1.30745 4.95514,1.54915 6,5c0.28979,0.95709 2.95514,2.54915 4,6c0.57959,1.91418 1,4 2,7c1,3 1,4 1,6c0,2 0.24438,4.01498 0,6c-0.50378,4.09221 -1.33197,4.22935 -3,8c-1.45862,3.29733 -2.4505,4.45049 -5,7c-2.5495,2.54951 -3.6297,2.62489 -7,5c-2.9472,2.07697 -4,4 -7,6c-3,2 -5.13202,1.75531 -9,4c-3.11847,1.80972 -4.88153,2.19028 -8,4c-3.86798,2.24469 -5.7699,3.54863 -10,5c-4.823,1.65482 -7,3 -12,5c-5,2 -7.11237,2.54704 -12,3.99998c-5.16193,1.53448 -10.01294,3.83981 -11,4c-3.12146,0.50653 -7.01294,1.83981 -8,2c-3.12146,0.50653 -7,1 -8,1c-3,0 -6.02673,0.22977 -7,0c-2.17627,-0.51373 -3.85272,-2.1731 -5,-3c-1.81396,-1.30746 -3.85272,-3.1731 -5,-4c-1.81396,-1.30746 -5,-3.99998 -6,-4.99998c-3,-3 -5.20679,-4.81265 -7,-7c-2.28589,-2.78833 -4.69257,-5.186 -6,-7c-2.48071,-3.4418 -5.87769,-6.06601 -7,-8c-1.80969,-3.11848 -3.23462,-6.15224 -4,-8c-1.0824,-2.61313 -4,-5 -4,-7c0,-1 -1,-3 -1,-5c0,-1 -0.4588,-0.69344 -1,-2c-0.38269,-0.92387 0,-2 0,-1c0,1 0.61731,1.07613 1,2c0.5412,1.30656 0.23462,2.15224 1,4c0.5412,1.30656 1,2 2,4c1,2 1.48627,3.82375 2,6c0.45953,1.9465 0.48627,3.82375 1,6c0.68927,2.91975 0.77026,5.02675 1,6c0.51373,2.17625 1,4 1,6c0,3 0,4 0,7c0,1 -0.54047,3.0535 -1,5c-0.51373,2.17625 -1.25653,2.79698 -2,3.99998c-1.66254,2.69 -2.41888,3.41885 -4,5c-1.58112,1.58115 -2.18604,2.69254 -4,4c-2.29456,1.65381 -3.52014,3.32367 -5,5c-2.38617,2.703 -5.85272,3.1731 -7,4c-3.62799,2.6149 -8,5 -10,6c-4,2 -8,4 -10,5c-4,2 -8.03064,3.91232 -11,5c-5.05658,1.85226 -8.94366,4.18835 -12,5c-4.92822,1.30875 -8.71198,3.98163 -14,5c-2.94586,0.56732 -7.71198,2.98163 -13,4c-1.96393,0.3782 -7.09662,0.53375 -13,2c-3.06903,0.76227 -9.07745,1.03891 -15,2c-3.12146,0.50653 -9.07745,1.03891 -15,2c-3.12146,0.50653 -9.93799,1.49829 -16,2c-2.98981,0.24744 -11,0 -21,0c-4,0 -11,0 -18,0c-4,0 -8.01764,0.49622 -15,0c-7.05328,-0.50125 -10,-2 -17,-3c-7,-1 -10.29501,-1.15121 -20,-5c-2.07858,-0.82431 -8.03986,-3.92398 -10,-5c-5.11145,-2.80591 -9.88531,-6.12967 -11,-7c-4.59598,-3.58844 -8,-6 -12,-10c-2,-2 -4.16125,-6.79626 -8,-10c-1.71674,-1.43277 -3.79395,-5.08743 -6,-10c-0.91602,-2.03983 -2,-6 -4,-9.99998c-1,-2 -1.49347,-4.87856 -2,-8c-0.16019,-0.98709 -1,-4 -1,-6c0,-2 -0.48627,-3.82375 -1,-6c-0.4595,-1.9465 0,-4 0,-8c0,-1 -0.48627,-3.82375 -1,-6c-0.4595,-1.9465 0,-3 0,-6c0,0 0,-2 0,-4c0,0 0,-1 0,-3c0,-1 0,-1 0,-2c0,-1 0,-2 0,-3l0,0" id="svg_10" stroke-width="6" stroke="#000" fill="none"/>
 </g>
</svg>