<svg width="800" height="600" xmlns="http://www.w3.org/2000/svg">

 <g>
  <title>Layer 1</title>
  <path stroke="#000" d="m475.52572,133c0,4.58491 2.1596,11.62529 4.76045,18.33962c2.30255,5.94432 7.51375,14.29365 9.5209,17.1934c5.01798,7.24937 3.5591,13.69396 4.76045,18.33962c2.34914,9.08406 3.17363,12.60849 3.17363,16.04717c0,6.87736 0,10.31604 0,13.75472c0,8.02358 1.57481,11.50263 0,27.50943c-0.79544,8.08466 -3.58884,15.95082 -9.5209,29.80189c-3.41421,7.97188 -5.68558,16.36437 -17.45498,28.65566c-4.51338,4.71349 -21.19922,15.72332 -31.73633,21.7783c-11.71522,6.73195 -39.55328,17.38876 -53.95177,21.7783c-15.74565,4.80024 -52.36495,18.33962 -68.23312,21.7783l-42.84405,8.02358" id="svg_75" stroke-width="10" fill="none"/>
 </g>
</svg>