<svg width="800" height="600" xmlns="http://www.w3.org/2000/svg">

 <g>
  <title>Layer 1</title>
  <path stroke="#000" d="m285,245c6,0 18.06079,1.64311 28,3.2585c10.08575,1.63921 20.98297,3.80145 43,4.34467c9.99741,0.24666 32.99463,-0.05373 42,-1.08617c9.99435,-1.14583 26.96262,-3.8009 37,-4.34467c15.98013,-0.86569 24,0 31,0c9,0 11.77023,-1.05711 12,0c0.51373,2.36378 -4.93665,2.40605 -8,3.2585c-10.83054,3.01384 -22.9606,6.63779 -68,23.89567c-19.98264,7.6568 -32.06863,12.07552 -42,19.551c-1.16238,0.87495 -5.63016,4.86992 -17,20.63717c-5.30435,7.35586 -10.586,20.50239 -12,29.32651c-1.72327,10.75417 -2.09116,33.73604 -1,44.53284c1.00601,9.95417 3.40411,27.26807 10,40.18817c9.62579,18.85508 18.84235,21.13657 27,23.89567c15.74664,5.32589 23.95847,5.97309 33,6.517c18.97092,1.14126 29,-1.08617 37,-2.17233c16,-2.17233 26,-4.34467 42,-6.517c8,-1.08617 15,-3.2585 25,-6.517l3,-1.08617l3,-1.08617" id="svg_63" stroke-width="10" fill="none"/>
  <path d="m382,199c-2,0 -3,1 -4,2c-1,1 -3,2 -3,3c0,1 0,2 0,3c0,1 -0.70709,2.29289 0,3c0.70709,0.70711 4,0 6,0c3,0 5.69345,-0.4588 7,-1c0.92389,-0.38269 2.07611,-0.61731 3,-1c1.30655,-0.5412 2,-1 2,-2c0,-1 0,-3 0,-4c0,-1 0,-2 -1,-2c-1,0 -2,0 -4,0c-2,0 -3,0 -4,0c-1,0 -1.29291,0.29289 -2,1c-0.70709,0.70711 -1,1 0,1c1,0 3.01291,0.16019 4,0c3.12143,-0.50655 4,-2 5,-2c1,0 1,-1 -1,-1c-2,0 -3,0 -4,0c-1,0 -2.29291,-0.70711 -3,0c-0.70709,0.70711 -1,2 -1,3c0,1 1,1 2,0l-1,0" id="svg_64" stroke-width="10" stroke="#000" fill="none"/>
 </g>
</svg>