<svg width="1012" height="506" xmlns="http://www.w3.org/2000/svg">
 <g id="Layer_1">
  <title>Layer 1</title>
  <path d="m575,128.40001c-1,-1.00001 -0.69342,-1.45881 -2,-2.00001c-0.92389,-0.38268 -2.07611,-0.38268 -3,0c-1.30658,0.5412 -3,1 -4,2.00001c-1,1 -4,1 -6,3c-2,2 -3.81268,2.2068 -6,4c-2.78833,2.28587 -4.20679,3.81265 -6,6c-2.28589,2.78833 -2.34619,3.70546 -4,6c-1.30743,1.814 -1.75562,4.01498 -2,6c-0.50378,4.09221 -1.49347,3.87856 -2,7c-0.32037,1.97418 0.25653,3.797 1,5c1.66254,2.68999 2.93414,4.14429 5,5c2.92157,1.21014 4.82373,2.48625 7,3c2.91974,0.68925 6.02673,-0.22975 7,0c2.17627,0.51375 5.02673,0.77025 6,1c2.17627,0.51375 4,1 7,1c1,0 4.01294,1.16019 5,1c3.12146,-0.50655 5.02582,-0.67964 7,-1c3.12146,-0.50655 4.69342,-1.4588 6,-2c1.84778,-0.76537 4,1 4,0c0,-1 -0.29291,0.29289 -1,1c-0.70709,0.70711 -1.29291,1.29289 -2,2c-0.70709,0.70711 -2.29291,0.29289 -3,1c-0.70709,0.70711 -2,2 -3,3c0,0 -2.58582,-0.41422 -4,1c-0.70709,0.70711 -2.3869,2.9176 -5,4c-1.84778,0.76537 -4.76111,1.41589 -8,3c-2.8407,1.38936 -5.05664,2.91753 -8,5c-4.08173,2.88786 -5.74677,4.37134 -10,7c-3.8042,2.35114 -4.7265,4.29362 -9,8c-3.77728,3.27602 -6.22729,4.78491 -10,9c-4.27039,4.77115 -6.69238,7.41092 -10,12c-3.92236,5.44197 -5.62024,10.6689 -7,14c-1.95129,4.71088 -3.18835,9.94366 -4,12.99998c-1.30875,4.92819 -1,11 -1,14c0,6 0.18835,10.94366 1,14c1.30878,4.92819 2.05133,10.15396 3,13c1.58112,4.74341 5.41156,9.40402 9,14c1.74066,2.22937 4.71411,6.21167 7,9c3.58636,4.37469 8.22272,6.724 12,10c2.13672,1.85318 5.25659,5.41885 10,7c1.89734,0.63245 6.04132,1.84723 10,3c3.03619,0.88412 8,1 12,1c2,0 6,-1 10,-2c4,-1 6.02997,-1.51126 10,-2c4.09222,-0.50378 5.04132,-1.84723 9,-3c3.03619,-0.88412 5,-1 8,-3c3,-2 3.88153,-2.19028 7,-4c1.93402,-1.12234 4.78381,-0.42007 8,-3c1.7442,-1.39917 3.05353,-2.5405 5,-3c2.17627,-0.51373 2.85272,-2.1731 4,-3c1.81396,-1.30746 3,-1 3,-1c1,0 2,0 2,-1c0,-1 -1,1 -2,1l0,0l-1,0l-1,0" id="svg_31" stroke-width="10" stroke="#000" fill="none"/>
 </g>
</svg>