<svg width="800" height="600" xmlns="http://www.w3.org/2000/svg">

 <g>
  <title>Layer 1</title>
  <path stroke-width="10" d="m390,182c0,3 0.77881,9.00612 1,13c0.50076,9.04153 1,12 1,19c0,2 0.49622,4.90779 1,9c0.36655,2.97752 1,7 1,9c0,2 1,5 1,8c0,6 0,8 0,9c0,1 0.08075,6.98453 1,12c1.09662,5.98309 0.55835,12.11621 2,21c0.50653,3.12143 1,6 1,12c0,4 1,10 1,12c0,2 1.28357,4.01007 1,8c-0.50125,7.05328 -2.49756,13.92578 -3,19c-0.49268,4.97568 0,11 0,14c0,3 0,5 0,6c0,3 0,5 0,6c0,3 0,5 0,8c0,2 -0.4588,2.69345 -1,4c-0.38269,0.92389 0,2 0,3c0,1 0,2 0,3c0,1 -0.22977,3.02676 0,4c0.51373,2.17624 1.61731,2.07611 2,3c0.5412,1.30655 0.29291,2.29291 1,3c0.70709,0.70709 0.61731,1.07611 1,2c0.5412,1.30655 1.29291,1.29291 2,2c0.70709,0.70709 -0.38269,2.07611 0,3c0.5412,1.30655 1,3 1,4c0,1 0,3 0,4c0,2 1,2 1,4c0,1 0,2 0,3c0,1 0,2 0,3c0,1 0.4588,1.69345 1,3c0.38269,0.92389 0,2 0,3c0,1 1,1 1,2l0,1" id="svg_1" stroke="#000" fill="none"/>
  <path stroke-width="10" stroke="#000" d="m421.61234,128.10669c-10.41261,-2.58405 -26.90331,-6.03052 -56.52562,-12.92026c-10.46073,-2.43302 -19.26826,-4.52084 -31.23784,-5.1681c-8.90785,-0.4817 -16.14192,1.28571 -31.23784,2.58405c-5.9211,0.50925 -12.33584,2.96248 -13.38765,3.87608c-2.10367,1.8272 -2.63325,2.61861 -2.97503,3.87608c-0.76419,2.81178 -1.23003,17.89809 0,19.38039c1.94488,2.34373 1.607,4.36242 7.43758,6.46013c1.3743,0.49445 4.28632,1.53787 8.9251,3.87608c2.87684,1.4501 4.58194,0.40149 8.9251,1.29203c3.23719,0.66378 7.77728,1.10073 11.90013,2.58405c1.94351,0.69924 10.41261,1.29203 14.87516,1.29203c5.95007,0 14.87516,0 17.8502,0c5.95007,0 10.41261,0 13.38765,0c5.95007,0 7.4832,-0.1133 11.90013,1.29203c7.52175,2.39317 9.98422,3.85234 17.8502,5.1681c2.92133,0.48867 9.18835,0.44599 16.36268,2.58405c3.14617,0.93761 6.01153,1.09464 11.90013,2.58405c4.51634,1.14233 8.66294,4.50433 11.90013,5.1681c1.4477,0.29684 3.41074,1.67045 4.46255,2.58405c1.05181,0.9136 -1.71399,0.30315 -4.46255,1.29203c-1.94351,0.69924 -4.46255,1.29203 -5.95007,1.29203c-1.48752,0 -4.46255,0 -8.9251,0c-2.97503,0 -2.97503,-1.29203 -5.95007,-1.29203c-1.48752,0 -2.97503,-1.29203 -4.46255,-1.29203c-4.46255,0 -5.95007,0 -8.9251,0c-1.48752,0 -2.97503,0 -4.46255,0c-4.46255,0 -7.43758,1.29203 -10.41261,1.29203c-1.48752,0 -4.46255,0 -5.95007,0c-2.97503,0 -4.46255,1.29203 -7.43758,1.29203c-1.48752,0 -4.58194,0.40149 -8.9251,1.29203c-3.23719,0.66378 -8.9251,3.87608 -10.41261,3.87608c-2.97503,0 -6.06673,2.31254 -10.41261,3.87608c-6.14599,2.21119 -7.43758,3.87608 -8.9251,3.87608c-1.48752,0 -2.97503,0 -4.46255,0c-1.48752,0 -7.77728,-0.19129 -11.90013,1.29203c-1.94351,0.69924 -4.46255,1.29203 -5.95007,1.29203c-1.48752,0 -3.05461,-0.59369 -5.95007,0c-3.23719,0.66378 -4.46255,1.29203 -5.95007,1.29203c-1.48752,0 -2.97503,0 -4.46255,0l-1.48752,0l-1.48752,0" id="svg_2" fill="none"/>
 </g>
</svg>