<svg width="800" height="600" xmlns="http://www.w3.org/2000/svg">

 <g>
  <title>Layer 1</title>
  <path d="m168,170c0,2 -0.67894,6.03854 0,12c1.50969,13.25597 4,17 4,24c0,3 0,7 0,12c0,3 0,6 0,11c0,3 0,6 0,13c0,5 0,13 0,18c0,6 0.49623,13.90778 1,18c0.48874,3.97003 1.2242,11.90283 2,14c1.4305,3.867 1,5 1,6c0,1 1.4588,1.30655 2,0c0.38269,-0.92389 0.69344,-1.4588 2,-2c0.92387,-0.38269 1.69344,-0.4588 3,-1c0.92387,-0.38269 2,0 3,0c1,0 4,0 5,0c3,0 5,0 8,0c3,0 4,0 6,0c4,0 6,0 10,0c2,0 5,0 10,0c2,0 4,0 7,0c3,0 4,0 7,0c2,0 6,0 8,0c2,0 6,0 9,0c3,0 6.82376,-0.48627 9,-1c2.91974,-0.68927 7,0 9,0c1,0 2,0 4,0c5,0 7,0 9,0c5,0 8,0 11,0c6,0 9,0 14,0c2,0 5,0 9,0c1,0 4,0 9,0c1,0 4,0 6,0c2,0 5,0 7,0c3,0 9,0 12,0c3,0 7.82376,-1.48627 10,-2c1.9465,-0.4595 6,0 8,0c5,0 8,0 10,0c4,0 6.01498,0.75565 8,1c4.09222,0.50378 4.87857,1.49347 8,2c0.98709,0.16019 3,0 5,0c2,0 4,1 7,1c2,0 5,0 6,0c1,0 1,-1 1,-2c0,-1 0.70709,-2.29291 0,-3c-0.70709,-0.70709 -1.4588,-0.69345 -2,-2c-0.38269,-0.92389 0,-2 0,-3c0,-1 0,-3 0,-4c0,-2 0,-5 0,-7c0,-1 -0.22977,-4.02676 0,-5c0.51373,-2.17624 0.87781,-3.00751 1,-4c0.50378,-4.09222 0.75565,-5.01498 1,-7c0.50378,-4.09222 2,-6 2,-11c0,-2 1,-5 2,-12c1,-7 3.99512,-12.85159 5,-23c0.29562,-2.9854 1.99747,-6.89345 3,-21c0.21268,-2.99245 1,-6 1,-10c0,-1 0,-3 0,-6c0,-1 0,-4 0,-6l0,-1l0,-1l0,-1" id="svg_54" stroke-width="10" stroke="#000" fill="none"/>
  <path d="m253,163c0,2 -1,2 -1,3c0,1 0,2 0,3c0,1 -0.70711,3.29289 0,4c0.70711,0.70711 2,0 3,0c1,0 1.69345,-0.4588 3,-1c0.92389,-0.38269 2,0 3,-1c1,-1 2.07611,-0.61731 3,-1c1.30655,-0.5412 2,-1 2,-2c0,-1 -2,-2 -3,-2c-1,0 -2,0 -4,0c-1,0 -2,0 -3,0c-1,0 -2,0 -2,1c0,1 0,2 1,2c2,0 4,0 5,0c1,0 2,0 3,-1l1,0l0,-1l-1,0" id="svg_55" stroke-width="10" stroke="#000" fill="none"/>
  <path d="m320,165c0,1 -1.82376,2.48625 -4,3c-0.97324,0.22975 -1,1 -1,2c0,1 0.29291,1.29289 1,2c0.70709,0.70711 1,1 2,1c1,0 1.69345,0.4588 3,1c0.92389,0.38269 1.69345,0.4588 3,1c0.92389,0.38269 2,0 3,0c2,0 4,0 5,0c1,0 2.29291,0.70711 3,0c0.70709,-0.70711 1.29291,-0.29289 2,-1c0.70709,-0.70711 1,-1 1,-2c0,-1 0,-2 0,-3c0,-1 -1.07611,-0.61731 -2,-1c-1.30655,-0.5412 -2.29291,-0.29289 -3,-1c-0.70709,-0.70711 -2.29291,-1.29289 -3,-2c-0.70709,-0.70711 -2,0 -3,0c-1,0 -2.07611,-0.38269 -3,0c-1.30655,0.5412 -1,2 -1,3c0,1 0,2 0,3l1,0" id="svg_56" stroke-width="10" stroke="#000" fill="none"/>
  <path d="m289,130c0,1 0,2 0,3c0,1 0.4588,1.69344 1,3c0.76538,1.84776 -0.30655,3.4588 1,4c0.92389,0.38269 2,0 3,0c1,0 2,0 3,0c2,0 3.30447,1.53073 7,0c1.30655,-0.5412 2,-1 4,-1c1,0 2.29291,-0.29289 3,-1c0.70709,-0.70711 0,-2 0,-3c0,-1 -0.29291,-1.29289 -1,-2c-0.70709,-0.70711 -0.69345,-1.4588 -2,-2c-0.92389,-0.38269 -1.69345,-0.4588 -3,-1c-0.92389,-0.38269 -2,0 -3,0c-1,0 -1.69345,-0.4588 -3,-1c-0.92389,-0.38269 -2,0 -3,0c-1,0 -2.4588,-0.30656 -3,1c-0.38269,0.92387 0,2 0,3c0,1 1,1 2,1c1,0 2,0 3,0c1,0 2,0 3,0c1,0 2,-1 2,-2l0,-1" id="svg_57" stroke-width="10" stroke="#000" fill="none"/>
 </g>
</svg>