<svg width="800" height="600" xmlns="http://www.w3.org/2000/svg">

 <g>
  <title>Layer 1</title>
  <path stroke-width="10" d="m617,211c0,6 0.89667,16.02235 0,34c-0.50061,10.0374 -0.64795,17.03455 -2,29c-0.79395,7.02635 -1,13 -1,23c0,3 0,5 0,11c0,2 0.70709,3.29291 0,4c-0.70709,0.70709 -3,0 -6,0c-5,0 -11.98218,-1.49985 -33,-2c-18.99463,-0.452 -59.87067,1.49753 -86,3c-26.95547,1.54999 -87.02948,-1.39456 -120,0c-59.1586,2.50223 -78.95847,6.49924 -88,7c-4.99234,0.27649 -9,0 -9,-1c0,-1 -0.38269,-2.07611 0,-3c0.5412,-1.30655 1,-5 1,-9c0,-6 0.75027,-22.00346 1,-31c0.50018,-18.02081 1.26865,-26.00516 1,-33c-0.50037,-13.02879 -2.1604,-18.96329 -3,-23c-1.23862,-5.95532 0.57993,-9.7838 -2,-13c-1.39917,-1.74423 -2,-2 -3,-3l0,1" id="svg_16" stroke="#000" fill="none"/>
  <path stroke-width="10" d="m385,204c0,0 -1.07611,-0.38269 -2,0c-1.30655,0.5412 -1,2 -1,3c0,3 0,4 0,5c0,1 1,1 2,1c1,0 3.21167,0.28587 6,-2c1.09366,-0.89659 3.85571,-0.93414 3,-3c-1.21014,-2.92157 -5,-2 -6,-3c-1,-1 -3.29291,-1.70711 -4,-1c-0.70709,0.70711 0,2 0,4c0,1 0,2 2,2c1,0 3.1731,-1.85274 4,-3c1.30746,-1.814 -0.29291,-2.70711 -1,-2c-1.41422,1.41422 -1.70709,3.29289 -1,4c0.70709,0.70711 2,0 3,0c2,0 1.85272,-1.1731 3,-2c1.814,-1.30745 0.09717,-0.7758 -2,0c-3.867,1.4305 -7.5412,1.69344 -7,3c0.38269,0.92387 2,-1 1,-1c-1,0 -1,1 1,1c1,0 3,0 4,-1c1,-1 1.38269,-2.07613 1,-3c-0.5412,-1.30656 -4,-2 -6,-2c-2,0 -3.70709,1.29289 -3,2c0.70709,0.70711 2,0 3,0c1,0 2.30746,0.186 1,2c-0.8269,1.14726 -1.69345,3.5412 -3,3c-0.92389,-0.38269 1.07611,-0.61731 2,-1c1.30655,-0.5412 2,-1 1,-1c-1,0 -2,0 -2,-1c0,-1 0.87857,-2.49345 4,-3c0.98709,-0.16019 1,-1 1,-2c0,-1 -0.90778,-1.49623 -5,-2c-2.97751,-0.36655 -4,1 -4,2c0,1 0,2 0,3c0,1 1,1 2,1c1,0 1,-1 2,-1c1,0 2.07611,0.38269 3,0c1.30655,-0.5412 1.29291,-1.29289 2,-2c0.70709,-0.70711 -0.69345,0.4588 -2,1c-0.92389,0.38269 -3.85065,3.47427 -3,4c1.9021,1.17557 3,-1 4,-1l-1,1l-1,0l-1,0" id="svg_17" stroke="#000" fill="none"/>
  <path stroke-width="10" d="m495,202c0,0 -2.4588,-0.30656 -3,1c-0.38269,0.92387 0,4 0,6c0,1 1,2 3,2c1,0 2,0 3,0c1,0 2.01291,0.16019 3,0c3.12143,-0.50655 4.82443,-1.09789 6,-3c0.52573,-0.85065 1.4588,-0.69344 2,-2c0.38269,-0.92387 0,-2 -1,-2c-3,0 -6,-1 -9,-1c-2,0 -6.29291,-0.70711 -7,0c-0.70709,0.70711 0,2 2,2c2,0 3,0 4,0c2,0 2.69345,-0.4588 4,-1c0.92389,-0.38269 1.9465,-0.4595 0,0c-2.17624,0.51375 -4.82443,1.09789 -6,3c-0.52573,0.85065 1,1 2,1c2,0 3,0 5,0c1,0 2.4588,0.30656 3,-1c0.38269,-0.92387 0.17624,-2.48625 -2,-3c-1.9465,-0.4595 -8,0 -10,0c-1,0 -3.4588,-0.30656 -4,1c-0.38269,0.92387 0,2 1,2c2,0 5.41885,0.58115 7,-1c1.58115,-1.58115 2.52573,-3.14935 2,-4c-1.17557,-1.90211 -3.23666,-1.94371 -5,-1c-3.17892,1.70131 -3,4 -3,6c0,1 0,2 1,2c1,0 2,0 5,0c1,0 2.07611,-0.61731 3,-1c1.30655,-0.5412 1,-2 -1,-2c-1,0 -3.4588,0.69344 -4,2c-0.38269,0.92387 1.47427,0.85065 2,0c1.17557,-1.90211 3.48627,-0.82375 4,-3c0.22977,-0.97325 -0.0535,-2.4595 -2,-2c-2.17624,0.51375 -3.186,1.69255 -5,3c-1.14728,0.8269 -1,2 0,2c1,0 2,0 3,0c1,0 2.70709,-0.29289 2,-1c-0.70709,-0.70711 -2.07611,-0.38269 -3,0c-1.30655,0.5412 -2.92389,2.61731 -2,3c1.30655,0.5412 2.07611,-0.61731 3,-1c1.30655,-0.5412 2,-2 1,-2c-2,0 -2.70709,1.29289 -2,2c0.70709,0.70711 2,0 3,0l0,-1l1,0l0,-1" id="svg_18" stroke="#000" fill="none"/>
  <line id="svg_20" y2="244" x2="275" y1="199" x1="270" stroke-width="10" stroke="#000" fill="none"/>
  <line id="svg_21" y2="215" x2="271" y1="185" x1="267" stroke-width="10" stroke="#000" fill="none"/>
  <line id="svg_22" y2="228" x2="617" y1="194" x1="617" stroke-width="10" stroke="#000" fill="none"/>
 </g>
</svg>