<svg width="800" height="600" xmlns="http://www.w3.org/2000/svg">

 <g>
  <title>Layer 1</title>
  <path d="m250,179c6,0 14.03043,0.19383 21,-1c5.02582,-0.86089 18,-2 24,-3c6,-1 16.98087,-3.12257 23,-4c7.97794,-1.16295 13.01257,-1.64555 18,-2c7.05328,-0.50127 10,-1 13,-1c10,0 15.05042,-0.23732 25,2c4.02264,0.90456 8.94672,1.49873 16,2c3.98993,0.28355 5.93796,0.49829 12,1c3.98636,0.32993 5.93796,0.49829 12,1c2.98978,0.24744 6,0 14,0c2,0 5,0 10,0c3,0 9,0 11,0c1,0 2,0 1,0c-1,0 -2,0 -3,0c-1,0 -3,0 -4,0c-1,0 -2,0 -3,0c-2,0 -3,0 -6,0c-2,0 -9,0 -13,0c-2,0 -6.02676,-0.22975 -7,0c-2.17624,0.51375 -7.77664,5.67787 -19,9c-12.793,3.78674 -14.69345,4.4588 -16,5c-2.77164,1.14806 -8,3 -17,6c-15,5 -18.186,5.69255 -20,7c-2.29453,1.65381 -6.23181,2.42796 -13,9c-2.5867,2.51175 -9.4577,8.45924 -19,17c-2.10754,1.88634 -4.55786,2.67458 -12,13c-2.6149,3.62799 -5.71317,7.37259 -9,19c-2.19308,7.75824 -3,21 -3,27c0,6 -1.14804,14.22836 0,17c1.0824,2.61313 5.18799,8.026 10,11c2.69,1.66251 9,4 13,6c6,3 8.75311,5.3327 10,6c4.49567,2.40601 5.64749,2.9725 10,4c1.9465,0.4595 4,1 8,1c2,0 4.93796,0.49829 11,1c4.98297,0.41241 10,0 18,0c3,0 8,0 11,0c4,0 12,0 16,0c4,0 8,0 9,0c1,0 4,0 6,0c5,0 11.82376,-0.48627 14,-1c4.86624,-1.14877 7.01459,-0.70438 10,-1c5.07422,-0.50244 6,-1 7,-1c2,0 5,0 8,0c5,0 8.10699,-0.08099 12,-1c2.17624,-0.51373 5,-1 8,-1l1,0l1,0" id="svg_58" stroke-width="10" stroke="#000" fill="none"/>
  <path d="m386,257c-1,0 -2,0 -2,2c0,2 0,3 0,4c0,1 0.61731,1.07611 1,2c0.5412,1.30655 2,1 3,1c1,0 2,0 3,0c1,0 2.29291,0.70709 3,0c0.70709,-0.70709 0.69345,-1.4588 2,-2c0.92389,-0.38269 1.29291,-0.29291 2,-1c0.70709,-0.70709 0,-2 0,-3c0,-1 -0.4588,-1.69345 -1,-3c-0.38269,-0.92389 -2,-2 -3,-2c-1,0 -1.69345,-0.4588 -3,-1c-0.92389,-0.38269 -2,0 -3,0c-1,0 -2.4588,-0.30656 -3,1c-0.38269,0.92387 0,2 0,3c0,1 -0.70709,2.29291 0,3c0.70709,0.70709 2,0 3,0c1,0 2,0 3,0l1,0l-1,0" id="svg_59" stroke-width="10" stroke="#000" fill="none"/>
 </g>
</svg>