<svg width="1012" height="506" xmlns="http://www.w3.org/2000/svg">
 <g id="Layer_1">
  <title>Layer 1</title>
  <text fill="#000000" stroke="#000" stroke-width="0" x="218.99999" y="330.4" id="svg_4" font-size="200" font-family="Noto Sans JP" text-anchor="start" xml:space="preserve"/>
  <path stroke-width="7" d="m897.39996,161c0,2 0,2 1,4c1,2 0.75562,4.01498 1,6c0.50378,4.09221 1,6 1,8c0,3 0,5 0,8c0,4 0,5 0,7c0,1 0,4 0,6c0,3 0,4 0,7c0,1 0,4 0,4c0,2 0,3 0,4c0,1 -0.77026,3.02675 -1,4c-0.51373,2.17625 -2.29291,5.29289 -3,6c-0.70709,0.70711 -0.82373,1.48625 -3,2c-0.97327,0.22975 -2.18604,0.69255 -4,2c-1.14728,0.8269 -5,2 -7,3c-2,1 -5.02582,0.67964 -7,1c-3.12146,0.50655 -6.92578,1.49756 -12,2c-2.98541,0.29561 -7,0 -9,0c-4,0 -7,0 -10,0c-4,0 -6,0 -8,0c-1,0 -3.01294,0.16019 -4,0c-3.12146,-0.50655 -3.85272,-2.1731 -5,-3c-1.81396,-1.30745 -3,-3 -5,-4c-2,-1 -2.21167,-0.71413 -5,-3c-2.18732,-1.7932 -3.4588,-2.69344 -4,-4c-0.76538,-1.84776 -1.1731,-2.85274 -2,-4c-1.30743,-1.814 -2.4588,-2.69344 -3,-4c-0.76538,-1.84776 -1.48627,-2.82375 -2,-5c-0.45953,-1.9465 -0.85193,-5.22836 -2,-8c-0.5412,-1.30656 -2.4588,-3.69344 -3,-5c-0.38269,-0.92387 -1,-4 -1,-4c0,-1 -1.8244,-3.09789 -3,-5c-0.52576,-0.85065 -0.14935,-2.47427 -1,-3c-1.9021,-1.17557 -1.29291,-3.29289 -2,-4c-1.41418,-1.41422 -0.23462,-3.15224 -1,-5c-0.5412,-1.30656 -1.48627,-1.82375 -2,-4c-0.22974,-0.97325 -1.48627,-1.82375 -2,-4c-0.22974,-0.97325 0.38269,-2.07613 0,-3c-0.5412,-1.30656 -0.29291,-3.29289 -1,-4c-0.70709,-0.70711 -1,-1 -1,0c0,0 1,1 1,2c0,1 0,2 0,3c0,1 1.29291,2.29289 2,3c1.41418,1.41422 0,3 1,4c0,0 0,1 0,2c0,1 0.29291,1.29289 1,2c0.70709,0.70711 0,2 0,3c0,1 0,1 0,2c0,1 0,2 0,3c0,0 -0.38269,1.07613 0,2c0.5412,1.30656 2,2 2,2c0,1 0,2 0,3c0,1 0,1 1,2c1,1 1,2 1,3c0,0 0,1 0,2c0,1 0,2 0,2c0,1 -0.16016,4.01291 0,5c0.50653,3.12144 1,3 1,4c0,1 0,2 0,3c0,0 0,1 0,2c0,1 0,2 0,2c0,1 -0.4588,1.69344 -1,3c-0.38269,0.92387 -0.69342,1.4588 -2,2c-1.84778,0.76537 -2.69342,2.4588 -4,3c-1.84778,0.76537 -2,1 -3,2c-2,2 -2.797,2.2565 -4,3c-2.69,1.66251 -4.31,1.33749 -7,3c-1.203,0.7435 -3.04291,1.71022 -4,2c-3.45087,1.04483 -5.15222,1.23463 -7,2c-1.30658,0.5412 -2.07611,1.61731 -3,2c-1.30658,0.5412 -3,2 -4,2c-2,0 -5,1 -7,1c-2,0 -2.82373,0.48625 -5,1c-0.97327,0.22975 -2,0 -2,0c-2,0 -3.01294,-0.16019 -4,0c-3.12146,0.50655 -6,2 -8,2c-5,0 -8,0 -12,0c-3,0 -5,0 -6,0c-2,0 -2,0 -3,0c-1,0 -2,0 -3,0c0,0 -1.02673,-1.77025 -2,-2c-2.17627,-0.51375 -2.05353,-1.5405 -4,-2c-2.17627,-0.51375 -1.85272,-3.1731 -3,-4c-1.81396,-1.30745 -2.1731,-2.85274 -3,-4c-1.30743,-1.814 -1.69257,-4.186 -3,-6c-0.8269,-1.14726 -0.69257,-2.186 -2,-4c-1.65381,-2.29454 -2,-3 -3,-5c-1,-2 -0.47424,-3.14935 -1,-4c-1.1756,-1.90211 -2.48627,-1.82375 -3,-4c-0.22974,-0.97325 -0.9176,-1.38687 -2,-4c-0.38269,-0.92387 0.30743,-2.186 -1,-4c-0.8269,-1.14726 -1.41888,-3.41885 -3,-5c-1.58112,-1.58115 -1,-4 -1,-4c-1,-1 -0.77026,-4.02675 -1,-5c-0.51373,-2.17625 -2,-5 -3,-6c-1,-1 -1,-3 -1,-4c0,-1 -1,-2 -1,-3c0,-1 -0.45953,0.0535 0,2c0.51373,2.17625 1.1731,3.85274 2,5c1.30743,1.814 2,5 2,7c0,2 1.49347,3.87856 2,7c0.32037,1.97418 1,5 2,7c1,2 1.8244,4.09789 3,6c0.52576,0.85065 1.48627,3.82375 2,6c0.45953,1.9465 0.42041,4.08582 1,6c1.04486,3.45085 2.67963,6.02582 3,8c0.50653,3.12144 3.48627,5.82375 4,8c0.22974,0.97325 1.34619,3.70546 3,6c1.30743,1.814 1,6 1,8c0,2 1,3 1,5c0,1 0,2 0,4c0,1 0,3 0,5c0,1 0,4 0,6c0,1 0,2 0,5c0,3 -1,5 -1,5c0,3 -0.34619,3.70547 -2,6c-1.30743,1.814 -2.18604,4.69254 -4,6c-2.29456,1.65381 -5.06598,3.87766 -7,5c-3.11847,1.80972 -6.2594,4.99808 -10,7c-4.49567,2.40601 -9.2771,2.228 -13,4c-4.51471,2.14886 -11.87604,6.34314 -17,8c-3.9231,1.26855 -10.06134,3.82462 -16,6c-5.05658,1.85226 -10.92987,3.34686 -20,5c-6.95648,1.26791 -12.01691,1.90338 -18,3c-5.0155,0.91925 -13.19324,0.98639 -21,3c-5.21448,1.345 -12.01764,2.50378 -19,3c-7.05328,0.50125 -15.02917,1.40878 -21,2c-5.07422,0.50244 -11.06458,1.19907 -16,2c-3.12143,0.50653 -7.99997,2 -11.99997,2c-4,0 -8,0 -14,0c-6,0 -12,0 -25,0c-7,0 -12,0 -18,0c-5,0 -9.06458,0.8009 -14,0c-3.12143,-0.50653 -8.07611,-1.61731 -9,-2c-2.61313,-1.0824 -5.87857,-3.49347 -9,-4c-1.97418,-0.32037 -4.22836,-0.85196 -7,-2c-1.30655,-0.5412 -4.15927,-1.61066 -7,-3c-3.23892,-1.58411 -5,-3 -9,-5c-2,-1 -5.297,-3.61383 -8,-6c-3.35266,-2.95969 -6.06601,-3.87766 -8,-5c-3.11847,-1.80972 -4.61383,-2.297 -7,-5c-1.47983,-1.67633 -4.61731,-5.07611 -5,-6c-1.6236,-3.91968 -5.513,-6.59399 -7,-9c-1.66251,-2.69 -3.14429,-3.93414 -4,-6c-1.21014,-2.92157 -2.14429,-3.93414 -3,-6c-1.21014,-2.92157 -2.13065,-5.12872 -3,-8c-1.04483,-3.45084 -3.28857,-4.86829 -5,-9c-1.21014,-2.92157 -1.78986,-6.07843 -3,-9c-0.85571,-2.06586 -2,-4 -3,-7c-1,-3 -2,-6 -2,-7c0,-3 -2,-6 -2,-7c0,-3 -1,-4 -1,-7c0,-1 -0.14429,-3.93414 -1,-6c-1.21014,-2.92157 -1.48627,-3.82375 -2,-6c-0.4595,-1.9465 0,-5 0,-6c0,-3 0,-5 0,-7c0,-1 0,-3 0,-4c0,-1 0,-3 0,-4c0,-1 0,-3 0,-4c0,-1 0,-2 0,-3c0,-1 0,-2 0,-4c0,-1 0,-1 0,-2l0,-1l0,-1l0,-1" id="svg_6" stroke="#000" fill="none"/>
 </g>

</svg>