<svg width="800" height="600" xmlns="http://www.w3.org/2000/svg">

 <g>
  <title>Layer 1</title>
  <path stroke-width="10" d="m616,123c0,6 0,14 0,22c0,8 -0.28516,24.00508 0,32c0.50031,14.02675 1.75256,19.01022 2,22c0.50171,6.06204 1.64557,9.01257 2,14c0.50128,7.05328 1,11 1,16c0,13 0,16 0,19c0,1 0.29291,1.29289 1,2c0.70709,0.70711 0.70709,2.29289 0,3c-0.70709,0.70711 -2,0 -3,0c-3,0 -7.95319,-1.99951 -40,-3c-29.98541,-0.93613 -67.98026,-2.99991 -144,-4c-35.99689,-0.47356 -79.00778,-1.1839 -169,0c-38.00987,0.50005 -79,4 -87,4c-2,0 -5,-1 -5,0c0,1 2.29289,0.70711 3,0c0.70711,-0.70711 0.67964,-2.02582 1,-4c0.50655,-3.12144 2,-14 2,-20c0,-9 -0.05481,-16.99333 -1,-25c-2.12323,-17.98589 -2.69446,-25.08264 -5,-33c-0.88414,-3.03616 -1.49623,-5.90779 -2,-10c-0.12218,-0.99251 0.38269,-3.07613 0,-4c-0.5412,-1.30656 -1,-3 -1,-4c0,-1 0,-2 0,-3l0,-1l-1,0" id="svg_13" stroke="#000" fill="none"/>
  <path stroke-width="10" d="m386,284c-1,0 -3.87857,-0.49347 -7,-1c-2.96127,-0.48056 -4.4588,-0.30655 -5,1c-1.53073,3.69553 0,6 0,8c0,2 0,3 0,4c0,1 0.69254,4.186 2,6c0.8269,1.14728 2,1 4,1c2,0 2.25659,-1.41885 7,-3c0.94867,-0.31622 2.29291,-1.29291 3,-2c0.70709,-0.70709 1,-2 1,-3c0,-2 0.70709,-4.29291 0,-5c-0.70709,-0.70709 -1,-1 -2,-1c-2,0 -3.15686,0.42029 -9,-2c-2.06586,-0.85571 -7,-1 -8,0c-1,1 -2,4 -2,5c0,1 -0.38269,4.07611 0,5c0.5412,1.30655 3,1 4,1c3,0 5.69345,-0.4588 7,-1c1.84775,-0.76538 4.07611,0.38269 5,0c1.30655,-0.5412 1,-2 1,-3c0,-1 -0.0979,-3.82443 -2,-5c-0.85065,-0.52573 -2.00751,-0.12219 -3,0c-4.09222,0.50378 -5.71411,2.21167 -8,5c-0.89661,1.09366 -1,2 -1,3c0,1 2,1 3,1c2,0 3.01291,0.16019 4,0c3.12143,-0.50653 4.1731,-0.85272 5,-2c1.30746,-1.814 1.38269,-3.07611 1,-4c-1.0824,-2.61313 -4.10699,-2.91901 -8,-2c-2.17624,0.51373 -3.29291,1.29291 -4,2c-2.12131,2.12131 -0.70709,4.29291 0,5c0.70709,0.70709 2,0 4,-1c2,-1 4.41885,-1.25659 6,-6c0.63245,-1.89737 -1,-4 -2,-4c-2,0 -7.1731,1.85272 -8,3c-1.30746,1.814 -2,6 -2,7c0,1 0.93414,1.14429 3,2c2.92157,1.21014 4.797,2.2565 6,3c2.69,1.66251 5,1 6,0c1,-1 1,-3 1,-7c0,-1 -1,-3 -2,-3c-2,0 -3,1 -5,5c-1,2 -2,4 0,4c2,0 4.29871,-0.82108 6,-4c0.47186,-0.88168 -0.1033,-3.28146 -8,-2c-3.12143,0.50653 -5.48627,0.82376 -6,3c-0.22977,0.97324 -0.30655,2.4588 1,3c1.84775,0.76538 2.69345,-0.4588 4,-1c1.84775,-0.76538 4.70709,-2.29291 4,-3c-0.70709,-0.70709 -2,0 -3,0c-1,0 1.2215,0.18063 2,-1c2.96448,-4.49576 2.70709,-6.29291 2,-7c-0.70709,-0.70709 -4.3764,0.08032 -6,4c-0.76538,1.84775 1.0535,2.5405 3,3c2.17624,0.51373 2.69345,1.4588 4,2c0.92389,0.38269 2.30746,-0.186 1,-2c-0.8269,-1.14728 -3,-1 -7,-1c-1,0 -2.48627,-0.17624 -3,2c-0.22977,0.97324 -0.70709,2.29291 0,3c0.70709,0.70709 2.15225,0.76538 4,0c1.30655,-0.5412 3.4588,-2.69345 4,-4c0.38269,-0.92389 1,-3 0,-3c-1,0 -2.33749,2.31 -4,5c-0.7435,1.203 0,1 1,1l1,-1l1,-2l0,-1" id="svg_15" stroke="#000" fill="none"/>
 </g>
</svg>