<svg width="800" height="600" xmlns="http://www.w3.org/2000/svg" stroke="null">
 <g stroke="null">
  <title stroke="null">Layer 1</title>
  <path fill="none" stroke="#000" id="svg_1" d="m-150,108c0,-1 0,-2 0,-5l4,-6l6,-2"/>
  <path d="m2,319c1,0 5.01881,0.22009 18,-1c9.01565,-0.84738 15,-1 23,-1c15,0 41,0 74,0c32,0 55,0 66,0c3,0 4,0 5,0c12,0 40,0 88,0c69,0 138,0 195,0c47,0 76.97656,-0.49976 93,-1c6.99658,-0.21844 9,0 12,0c10,0 25.07666,0.68353 37,-1c5.04895,-0.71289 7,-1 8,-1c3,0 8,0 13,0c8,0 13,0 26,0c15,0 30,0 39,0c6,0 8,0 11,0c3,0 7,0 9,0c1,0 2,0 5,0c1,0 5.02673,0.22977 6,0c2.17627,-0.51373 3,-2 5,-2c2,0 3,0 5,0c1,0 3,0 4,0c2,0 6,0 13,0c6,0 9,0 11,0c2,0 4,0 5,0c1,0 2,0 3,0c1,0 2,0 4,0c3,0 4,0 5,0l2,0l1,0l1,0" id="svg_6" stroke-width="10" stroke="#000" fill="none"/>
  <path stroke="#000" d="m782.0007,308.40479c0,-2.86507 0.40184,-6.80285 -2.87082,-17.19043c-4.26704,-13.54374 -8.37474,-28.50901 -19.13879,-42.97606c-12.12885,-16.30139 -26.14879,-29.50464 -37.32064,-37.24592c-10.92011,-7.56686 -21.73597,-12.40651 -33.49288,-15.28038c-23.53216,-5.75223 -35.40676,-4.77512 -44.01922,-4.77512c-8.61246,0 -24.14146,-3.01565 -44.97616,0c-26.66861,3.86007 -59.36284,13.5344 -86.12455,24.83061c-22.08656,9.32282 -31.18099,17.7233 -35.40676,23.87559c-5.57048,8.11006 -10.22349,14.67352 -20.09573,22.92057c-8.36659,6.98924 -14.50274,13.2499 -19.13879,19.10047c-2.96792,3.74545 -6.57332,7.76942 -10.52633,11.46028c-7.42837,6.93573 -11.31205,11.74556 -14.35409,13.37033c-0.84372,0.45064 -1.98893,0.75433 -4.7847,1.91005c-1.9769,0.81723 -2.83621,1.06569 -5.74164,1.91005c-3.78822,1.10092 -8.61246,1.91005 -15.31103,4.77512l-4.7847,0.95502l-1.91388,0.95502" id="svg_12" stroke-width="10" fill="none"/>
  <path stroke="#000" d="m414,51c0,2.07759 0,4.15517 0,7.27155c0,4.15517 0,7.27155 0,11.42672c0,4.15517 0,6.23276 0,10.38793c0,2.07759 1.4588,5.9143 2,7.27155c0.76538,1.91944 0,4.15517 0,5.19397c0,4.15517 1.49622,7.17576 2,11.42672c0.12219,1.03101 0,7.27155 0,11.42672c0,3.11638 0.98163,6.97239 2,12.46552c0.94553,5.10024 1.49622,8.21456 2,12.46552c0.36655,3.09303 -0.4595,5.24954 0,7.27155c0.51373,2.26068 1,4.15517 1,6.23276c0,2.07759 0,3.11638 1,7.27155c1,4.15517 1,6.23276 1,9.34914c0,2.07759 0.08075,7.25548 1,12.46552c1.09662,6.2152 1,11.42672 1,17.65948c0,5.19397 -0.39417,9.36936 0,13.50431c0.50244,5.27105 2,10.38793 2,15.5819c0,3.11638 0,5.19397 0,9.34914c0,3.11638 0,7.27155 0,12.46552c0,4.15517 0,9.34914 0,13.50431c0,4.15517 0,7.27155 0,11.42672c0,5.19397 0,10.38793 0,11.42672l0,3.11638l0,1.03879" id="svg_14" stroke-width="10" fill="none"/>
  <path d="m518,118c-1,0 -0.29291,1.29289 -1,2c-0.70709,0.70711 -2,0 -3,0c-2,0 0,0 1,0c3,0 6,0 7,0c1,0 0.98706,-0.83982 0,-1c-3.12146,-0.50654 -5,-1 -6,-1c-4,0 -9,-5 -9,-2c0,2 2,1 2,3c0,1 0,3 0,4c0,1 1,1 2,1c2,0 3,0 4,0c1,0 2,0 3,0c1,0 2.29291,0.70711 3,0c0.70709,-0.70711 0,-2 0,-3c0,-1 1.41418,-2.58578 0,-4c-0.70709,-0.70711 -2.29291,-0.70711 -3,0c-0.70709,0.70711 -0.70709,2.29289 0,3c0.70709,0.70711 1,-1 1,-3c0,-1 -1,-1 -2,-1c-1,0 -2,0 -3,-1l0,-1l-2,0l-2,0" id="svg_16" stroke-width="10" stroke="#000" fill="none"/>
 </g>

</svg>