<svg width="800" height="600" xmlns="http://www.w3.org/2000/svg">

 <g>
  <title>Layer 1</title>
  <path d="m362,296c3,0 7.93796,0.49829 14,1c5.97955,0.49487 18.03748,1.38907 23,2c4.09222,0.50378 10.06601,1.87766 12,3c3.11847,1.80972 8,4 9,5c3,3 3.81265,3.20682 6,5c2.78833,2.28589 4.56723,3.28326 6,5c3.20374,3.83875 6.3764,4.08032 8,8c0.76538,1.84775 0.9725,3.64749 2,8c0.68927,2.91974 1,5 1,7c0,2 -0.48627,2.82376 -1,5c-0.22977,0.97324 -3.4588,4.69345 -4,6c-0.38269,0.92389 -1.58578,0.58578 -3,2c-0.70709,0.70709 -1.02676,0.77023 -2,1c-2.17624,0.51373 -3,1 -4,1c-1,0 -2,0 -3,0c-1,0 -2,0 -8,2c-3,1 -5.07611,0.61731 -6,1c-1.30655,0.5412 -2,1 -3,1c-3,0 -8.0535,1.5405 -10,2c-2.17624,0.51373 -6.07843,0.78986 -9,2c-2.06586,0.85571 -8.00974,1.80292 -10,2c-5.07422,0.50244 -7,2 -9,2c-3,0 -5,0 -6,0c-2,0 -3,0 -4,0c-1,0 -2,0 -3,0c-1,0 -2.82443,0.9021 -4,-1c-0.52573,-0.85065 -1.0535,-0.5405 -3,-1c-2.17624,-0.51373 -4,-2 -5,-2l0,-1l-1,0" id="svg_71" stroke-width="10" stroke="#000" fill="none"/>
  <path stroke="#000" d="m403.56507,243.14276c-1.53362,0 -3.06725,0 -3.83406,0c-0.76681,0 -0.99142,0.31216 -1.53362,1.06578c-0.54221,0.75362 0,2.13157 0,3.19735c0,1.06578 0,2.13157 0.76681,2.13157c0.76681,0 1.53362,0 2.30044,0c0.76681,0 1.53362,0 2.30044,0c0.76681,0 1.65037,0.81571 3.06725,0c1.00188,-0.5768 2.30044,-2.13157 3.06725,-2.13157c0.76681,0 0.99142,-0.31216 1.53362,-1.06578c0.54221,-0.75362 0.76681,-1.06578 0.76681,-2.13157c0,-1.06578 -0.65388,-1.25027 -1.53362,-2.13157c-1.39099,-1.39346 -3.83406,-1.06578 -5.36768,-1.06578c-3.06725,0 -4.65923,-0.40787 -5.36768,0c-2.00378,1.1536 -2.12425,3.22586 -2.30044,4.26313c-0.39394,2.31942 -1.11863,2.87062 -1.53362,4.26313c-0.5869,1.96932 -0.29345,3.27848 0,4.26313c0.415,1.39251 1.53362,1.06578 2.30044,1.06578c1.53362,0 3.06725,-1.06578 4.60087,-1.06578c1.53362,0 3.89242,-0.65792 4.60087,-1.06578c1.00188,-0.5768 1.75823,-0.31216 2.30044,-1.06578c0.54221,-0.75362 0,-2.13157 0,-3.19735c0,-1.06578 0,-2.13157 -1.53362,-2.13157c-1.53362,0 -3.06725,0 -3.83406,0c-3.06725,0 -3.184,0.25007 -4.60087,1.06578c-1.00188,0.5768 -0.99142,1.37794 -1.53362,2.13157c-0.54221,0.75362 0,2.13157 0,3.19735c0,1.06578 -0.29345,2.2127 0,3.19735c0.415,1.3925 2.30044,1.06578 3.06725,1.06578c0.76681,0 1.53362,0 3.83406,0c1.53362,0 2.30044,0 3.83406,0c0.76681,0 1.53362,-1.06578 2.30044,-1.06578c0.76681,0 0.76681,-1.06578 0.76681,-2.13157c0,-1.06578 0,-2.13157 0,-3.19735l-0.76681,0" id="svg_72" stroke-width="10" fill="none"/>
 </g>
</svg>