<svg width="800" height="600" xmlns="http://www.w3.org/2000/svg" stroke="null">
 <g stroke="null">
  <title stroke="null">Layer 1</title>
  <path d="m-150,108c0,-1 0,-2 0,-5l4,-6l6,-2" id="svg_1" stroke="#000" fill="none"/>
  <path transform="rotate(-2.11361 388.67 254)" stroke="#000" d="m462.53891,184.95045c0,-0.96573 0.35191,-1.97289 0,-2.89718c-1.26879,-3.33258 -7.38134,-4.6257 -10.92915,-5.79437c-5.01735,-1.65276 -9.7148,-3.86291 -12.1435,-3.86291c-1.21435,0 -6.07175,-0.96573 -7.2861,-0.96573c-2.4287,0 -2.54759,-0.79618 -4.8574,-1.93146c-2.06597,-1.01543 -3.64305,0 -4.8574,0c-1.21435,0 -3.64305,-0.96573 -4.8574,-0.96573c-1.21435,0 -2.4287,0.96573 -2.4287,2.89718c0,1.93146 0,4.82864 0,5.79437c0,2.89718 0,4.82864 0,5.79437c0,0.96573 0,3.86291 0,5.79437c0,1.93146 0,3.86291 0,4.82864c0,4.82864 0.28491,6.90712 1.21435,8.69155c1.31441,2.52357 0.71135,4.42862 2.4287,5.79437c0.85866,0.68287 0.85669,1.30005 3.64305,2.89718c2.20283,1.26264 7.18604,4.23652 8.50045,6.7601c0.46472,0.89221 1.21435,0.96573 3.64305,0.96573c3.64305,0 7.79474,-1.37023 9.7148,-2.89718c1.92007,-1.52696 4.39268,-2.9707 4.8574,-3.86291c0.6572,-1.26179 3.42985,-0.09453 4.8574,-1.93146c1.27683,-1.643 0.35569,-2.21431 1.21435,-2.89718c0.85866,-0.68287 0,-1.93146 1.21435,-2.89718c1.21435,-0.96573 0.74963,-2.00497 1.21435,-2.89718c0.6572,-1.26179 1.21435,-1.93146 1.21435,-3.86291c0,-0.96573 2.4287,-1.93146 2.4287,-2.89718c0,-1.93146 -0.46472,-2.9707 0,-3.86291c0.6572,-1.26179 2.4287,-1.93146 2.4287,-2.89718c0,-0.96573 0,0 0,3.86291c0,2.89718 -0.23933,5.80377 0,7.72582c0.61014,4.9003 3.02795,9.54 3.64305,12.55446c0.38905,1.90652 0,3.86291 0,6.7601c0,1.93146 1.11429,2.30507 2.4287,4.82864c0.92944,1.78444 0,3.86291 0,7.72582c0,1.93146 0,5.79437 0,6.7601c0,2.89718 0,4.82864 0,8.69155c0,5.79437 0,11.58874 0,19.31456c0,6.7601 0,10.62301 0,14.48592c0,2.89718 0.44512,4.85036 0,7.72582c-0.61177,3.95198 -8.50045,12.55446 -14.5722,18.34883c-6.07175,5.79437 -8.35188,7.78957 -9.7148,9.65728c-2.19764,3.01159 -9.0898,5.65061 -14.5722,7.72582c-4.52091,1.71127 -7.40499,1.76191 -9.7148,2.89718c-1.03298,0.50771 -5.22714,0.45319 -9.7148,1.93146c-1.58661,0.52265 -4.96161,0.40603 -7.2861,0.96573c-4.19052,1.00902 -10.98319,1.47948 -26.71571,2.89718c-24.40256,2.199 -47.35966,3.86291 -64.36057,6.7601l-3.64305,0l-2.4287,0" id="svg_12" stroke-width="10" fill="none"/>
 </g>

</svg>