<svg width="1012" height="506" xmlns="http://www.w3.org/2000/svg">
 <g id="Layer_1">
  <title>Layer 1</title>
  <path d="m618,229.40001c-1,0 -1,2 -1,3c0,1 0.49347,2.87856 1,6c0.16016,0.98709 0.67963,4.02582 1,6c0.50653,3.12144 2.49347,5.87856 3,9c0.32037,1.97418 0,4.99998 0,7.99998c0,2 -0.49347,4.87857 -1,8c-0.32037,1.97418 -1.69257,5.186 -3,7c-1.65381,2.29453 -2.77374,6.83521 -8,9c-0.92389,0.38269 -3.74677,4.37134 -8,7c-3.8042,2.35114 -6.7533,3.45596 -12,6c-27.90839,13.53232 -32.59308,13.47552 -41,15c-4.91974,0.89212 -13.07483,2.51962 -21,4c-4.05298,0.75708 -13.0874,2.39825 -22,4c-4.05811,0.72931 -13.96262,3.49939 -24,4c-4.9938,0.24905 -15,1 -24,1c-8,0 -13,-1 -21,-1c-4,0 -12.87997,-2.48169 -20,-4c-6.91559,-1.4747 -11.21512,-1.36078 -18,-4c-6.25189,-2.43188 -9.11954,-3.77194 -15,-7c-5.11145,-2.80591 -8.19028,-5.88153 -10,-9c-2.24469,-3.86798 -4.11588,-8.96384 -5,-12c-1.15277,-3.95868 -1,-9 -1,-12c0,-4 0.11588,-7.96384 1,-11c1.15277,-3.95868 0.79395,-8.08743 3,-12.99998c0.91602,-2.03983 2.37134,-5.74675 5,-10c1.17557,-1.90211 2,-6 3,-8c1,-2 2,-4 3,-6l0,-1l2,-2l1,-1" id="svg_15" stroke-width="10" stroke="#000" fill="none"/>
  <path d="m490,190.40001c0,1 0,1 0,2c0,1 0,1 0,2c0,1 0.70709,0.70711 0,0c-0.70709,-0.70711 -2,0 -2,-1c0,0 -1.38269,-0.07613 -1,-1c0.5412,-1.30656 0.69345,-2.4588 2,-3c0.92389,-0.38269 1.29291,-0.70711 2,0c0.70709,0.70711 -0.29291,1.29289 -1,2c-0.70709,0.70711 -0.29291,1.29289 -1,2c-0.70709,0.70711 -2.70709,-0.29289 -2,-1c0.70709,-0.70711 2,-1 3,-1c0,0 0,0 -1,1c-1,1 -2,1 -2,1c-1,0 -0.70709,0.70711 0,0c0.70709,-0.70711 0,-2 1,-2c1,0 2.70709,0.29289 2,1c-0.70709,0.70711 -1,1 -2,1c-1,0 -2,0 -2,0c0,-1 1.29291,-1.70711 2,-1c0.70709,0.70711 0.30655,0.4588 -1,1c-0.92389,0.38269 -1,0 -1,0c-1,0 -1,0 0,0c0,0 0,0 0,0c0,1 -1,1 -1,2l0,-1l-1,-1" id="svg_16" stroke-width="10" stroke="#000" fill="none"/>
 </g>
</svg>