<svg width="1012" height="506" xmlns="http://www.w3.org/2000/svg">
 <g id="Layer_1">
  <title>Layer 1</title>
  <path d="m516,184.40001c-1,0 -1.29291,0.29289 -2,1c-0.70709,0.70711 -2.15225,-0.76537 -4,0c-1.30655,0.5412 -3.1731,1.85274 -4,3c-1.30746,1.814 -2.14935,2.47427 -3,3c-1.9021,1.17557 -1.1731,2.85274 -2,4c-1.30746,1.814 -1.4588,3.69344 -2,5c-0.38269,0.92387 0.4588,2.69344 1,4c0.38269,0.92387 0.61731,3.07613 1,4c0.5412,1.30656 3,2 5,3c0,0 3,1 5,1c1,0 3,0 5,0c1,0 2,1 5,1c1,0 2,-1 4,-1c1,0 2,0 3,0c2,0 2.15222,-0.23463 4,-1c1.30658,-0.5412 1.29291,-1.29289 2,-2c0.70709,-0.70711 2,-1 3,-2c1,-1 1,-2 1,-2c0,0 0,0 0,0c0,1 -1.4588,0.69344 -2,2c-0.38269,0.92387 -1,1 -2,2c0,0 0.30658,1.4588 -1,2c-0.92389,0.38269 -0.69342,1.4588 -2,2c-0.92389,0.38269 -1.4588,-0.30656 -2,1c-0.38269,0.92387 -0.29291,1.29289 -1,2c-0.70709,0.70711 -1.29291,0.29289 -2,1c-0.70709,0.70711 -2.07611,-0.38269 -3,0c-1.30658,0.5412 -2.07611,1.61731 -3,2c-1.30658,0.5412 -1.69342,1.4588 -3,2c-1.84778,0.76537 -3,0 -3,0c-1,1 -3,1 -4,2c0,0 -1,1 -2,1c-1,0 -1.29291,0.29289 -2,1c-0.70709,0.70711 -2,0 -3,0c-1,0 -0.69345,0.4588 -2,1c-0.92389,0.38269 -2.29291,-0.70711 -3,0c-0.70709,0.70711 -1.69345,1.4588 -3,2c-0.92389,0.38269 -1,1 -3,1c-1,0 -1.69345,0.4588 -3,1c-0.92389,0.38269 -2,1 -3,1c0,0 -1,0 -2,0l-1,0l-1,-1" id="svg_25" stroke-width="10" stroke="#000" fill="none"/>
  <path d="m602,140.40001c0,-2 -0.29291,-2.29289 -1,-3c-0.70709,-0.70711 -0.29291,-2.70711 -1,-2c-0.70709,0.70711 0,2 0,3c0,3 -0.49622,2.90779 -1,7c-0.36658,2.97752 1,6 1,8c0,4 0.49622,7.90779 1,12c0.24438,1.98502 1,6 1,11c0,2 1,6 1,11c0,3 0.49829,7.93796 1,14c0.16498,1.99318 -0.3299,8.01363 0,12c0.50171,6.06204 1.49829,7.93796 2,14c0.49487,5.97955 -0.49829,7.93796 -1,14c-0.41241,4.98296 -1.46552,7.83809 -3,13c-1.45294,4.88762 -3.08398,9.96016 -4,11.99998c-2.20605,4.91257 -4.8244,9.0979 -6,11c-2.62866,4.25327 -7.19891,7.53238 -10,9c-4.42889,2.32053 -9.03064,5.91232 -12,7c-5.05658,1.85226 -11.07843,3.78986 -14,5c-6.19757,2.56711 -13.53973,5.46872 -21,7c-3.91833,0.80426 -12.07483,2.51962 -20,4c-4.05301,0.75708 -12.1181,3.3754 -19,5c-3.0777,0.72653 -10.13748,1.21655 -18,3c-3.08392,0.69952 -8.75711,2.98691 -15,4c-2.96127,0.48056 -7,0 -11,0c-2,0 -5,0 -7,0c-3,0 -4,0 -7,0c-1,0 -3.59399,-1.513 -6,-3c-2.69,-1.66251 -5.32367,-0.52017 -7,-2c-2.703,-2.38617 -2.33749,-3.31 -4,-6c-1.487,-2.40601 -2.49622,-3.90778 -3,-8c-0.48874,-3.97003 0,-6 1,-10c1,-4 2,-7 3,-10l1,-3" id="svg_29" stroke-width="10" stroke="#000" fill="none"/>
 </g>
</svg>