<svg width="800" height="600" xmlns="http://www.w3.org/2000/svg" stroke="null">
 <g stroke="null">
  <title stroke="null">Layer 1</title>
  <path fill="none" stroke="#000" id="svg_1" d="m-150,108c0,-1 0,-2 0,-5l4,-6l6,-2"/>
  <polyline stroke-linecap="round" id="svg_73" points="424,199 424,198 424,197 424,196 424,193 424,191 424,186 424,177 424,169 424,162 423,154 423,147 423,141 423,135 423,131 423,128 423,122 423,117 423,114 423,109 427,105 432,103 438,100 447,98 457,96 468,93 475,93 479,91 481,91 484,91 487,91 498,91 513,94 525,101 532,106 534,108 535,111 537,113 540,119 542,126 545,132 547,136 549,141 550,147 551,151 551,155 551,158 551,162 553,168 553,171 553,177 553,181 553,185 553,188 553,190 551,192 547,195 537,196 521,199 504,200 495,201 490,201 487,201 482,201 476,201 471,201 470,201 468,201 466,201 462,201 450,201 440,201 434,201 428,201 425,201 421,201 418,201 412,201 387,204 368,204 355,204 349,204 348,204 347,204 344,204 339,206 333,206 325,207 316,208 306,208 285,208 279,210 277,210 275,211 274,211 273,211 270,214 264,218 257,225 251,231 244,239 242,247 240,255 239,258 239,264 239,272 239,279 237,289 237,300 237,316 237,336 237,404 237,413 237,430 237,443 237,457 237,468 237,478 237,487 237,495 238,502 238,509 238,514 238,517 238,519 238,525 238,526 238,528 238,529 238,530 238,530 " opacity="NaN" stroke-width="10" stroke="#000" fill="none"/>
  <polyline stroke-linecap="round" id="svg_74" points="238,530 238,529 238,528 " stroke-width="10" stroke="#000" fill="none"/>
 </g>

</svg>