<svg width="1012" height="506" xmlns="http://www.w3.org/2000/svg">
 <g id="Layer_1">
  <title>Layer 1</title>
  <path d="m722,236.40001c0,0 0,1 -1,1c0,0 -1.07611,0.61731 -2,1c-1.30658,0.5412 -3,2 -5,3c0,0 -2.82373,0.48625 -5,1c-1.94647,0.4595 -4,1 -6,1c-4,0 -8,0 -12,0c-1,0 -6.17157,2.82843 -9,0c-0.70709,-0.70711 -3.07611,-1.61731 -4,-2c-1.30658,-0.5412 -3.4588,-2.69344 -4,-4c-0.76538,-1.84776 -1.48627,-3.82375 -2,-6c-0.45953,-1.9465 -0.45953,-4.0535 0,-6c0.51373,-2.17625 1.33746,-4.31001 3,-7c0.74347,-1.203 1.82111,-3.29869 5,-5c0.88165,-0.47186 3.18604,-0.69255 5,-2c1.14728,-0.8269 3,-2 5,-2c1,0 4,0 7,0c2,0 3.93414,0.14429 6,1c2.92157,1.21014 3,2 5,3c2,1 6,5 7,6c2,2 2.61731,4.07613 3,5c1.0824,2.61313 3.4588,3.69344 4,5c0.76538,1.84776 1.14935,3.47427 2,4c1.9021,1.17557 2,4 2,4c0,2 0,4 0,5c0,2 0,4 -1,5c-2,2 -2.90631,4.10341 -4,5c-2.78833,2.28587 -5.70544,4.34618 -8,5.99998c-1.81396,1.30746 -5.13202,2.75531 -9,5c-3.11847,1.80972 -5.48529,2.85114 -10,5c-3.7229,1.772 -6.91602,2.18936 -9,3c-6.78485,2.63922 -9.83807,3.46552 -15,5c-4.88763,1.45294 -7.94342,1.14774 -13,3c-2.96936,1.08768 -8.92767,2.23172 -15,4c-3.95868,1.15277 -10,2 -17,4c-7,2 -11.10059,1.38779 -19,3c-7.13306,1.45581 -9.94672,2.49875 -17,3c-6.98236,0.49622 -11,0 -17,0c-6,0 -9.97418,-1.1391 -15,-2c-6.96954,-1.19385 -9.15686,-1.57971 -15,-4c-4.13171,-1.71143 -8.88153,-4.19028 -12,-6c-3.86798,-2.24469 -7.69257,-5.186 -9,-7c-2.48071,-3.4418 -6,-7 -7,-9c-2,-4 -4,-8 -4,-9c0,-3.99998 -1.24435,-9.01497 -1,-10.99998c0.50378,-4.09221 0.75565,-8.01498 1,-10c0.50378,-4.09221 3.1731,-8.85274 4,-10c2.61493,-3.62799 4,-7 5,-8c3,-3 5,-5 6,-6l3,-2l2,0" id="svg_6" stroke-width="10" stroke="#000" fill="none"/>
  <path d="m681,172.40001c1,0 1,-1 1,-1c1,0 2,0 2,1c0,1 -0.29291,0.29289 -1,1c-0.70709,0.70711 -1,1 -1,2c0,0 -1.29291,0.70711 -2,0c-0.70709,-0.70711 0,-2 0,-2c0,-1 -0.70709,-2.29289 0,-3c0.70709,-0.70711 1,-1 1,-1c1,0 0.70709,0.29289 0,1c-0.70709,0.70711 0,0 -1,0l0,1l-1,0" id="svg_7" stroke-width="10" stroke="#000" fill="none"/>
 </g>
</svg>