<svg width="800" height="600" xmlns="http://www.w3.org/2000/svg" stroke="null">
 <g stroke="null">
  <title stroke="null">Layer 1</title>
  <path fill="none" stroke="#000" id="svg_1" d="m-150,108c0,-1 0,-2 0,-5l4,-6l6,-2"/>
  <path d="m612,221c0,-1 0.38269,-2.07613 0,-3c-0.5412,-1.30656 -1.07611,-1.61731 -2,-2c-1.30658,-0.5412 -1,-2 -2,-2c-1,0 -2,0 -3,0c-1,0 -2,-1 -4,-1c-1,0 -2,0 -4,0c-2,0 -4,0 -5,0c-2,0 -3,0 -5,0c-2,0 -3,0 -5,0c-1,0 -2.48627,-0.17625 -3,2c-0.4595,1.9465 -1.48627,1.82375 -2,4c-0.22977,0.97325 0,2 0,4c0,2 0,4 0,7c0,6 0.49347,10.87856 1,14c0.32037,1.97418 -0.30655,3.4588 1,4c1.84775,0.76537 2.82373,0.48625 5,1c3.89301,0.91901 10.94672,2.49873 18,3c1.995,0.14178 7,0 10,0c2,0 3,0 4,0c1,0 2,0 3,0c2,0 1.67499,-0.62001 5,-6c1.487,-2.40601 4,-5 4,-7c0,-1 -1.41418,-2.58578 0,-4c0.70709,-0.70711 2,-2 2,-3c0,-1 0,-4 0,-5c0,-1 0,-2 0,-3c0,-1 0,-2 -1,-4c-1,-2 -2,-4 -3,-4c-1,0 -2,0 -3,0c-1,0 -2,0 -3,0c-1,0 -2,0 -3,0c-2,0 -1,0 2,0c5,0 12.87866,-2.12132 15,0c1.41418,1.41422 0,3 0,5c0,1 0,5 0,9c0,2 0,5 0,8c0,4 0,5 0,8c0,2 -1,2 -1,4c0,3 0.24469,9.13202 -2,13c-3.61945,6.23697 -8.61804,10.64288 -15,14c-4.76599,2.50705 -9.63568,5.48038 -19,7c-20.72885,3.36383 -56,3 -102,3c-43,0 -105.02866,0.59805 -153,-2c-45.03389,-2.43896 -75.13419,-3.64539 -92,-6c-9.131,-1.27478 -12.82375,-3.48627 -15,-4c-3.89299,-0.91901 -9.34718,-2.28867 -14,-5c-5.53233,-3.22385 -8.78986,-11.07843 -10,-14c-1.71141,-4.13171 -4.09544,-7.97734 -5,-12c-1.11867,-4.97479 -0.83981,-9.01291 -1,-10c-0.50655,-3.12144 -1,-5 -1,-6c0,-2 0,-3 0,-4l0,-1l0,-2" id="svg_19" stroke-width="10" stroke="#000" fill="none"/>
  <polyline stroke-linecap="round" id="svg_21" points="630,188 630,189 " stroke-width="10" stroke="#000" fill="none"/>
  <polyline stroke-linecap="round" id="svg_22" points="599,186 599,187 599,188 " stroke-width="10" stroke="#000" fill="none"/>
 </g>

</svg>