<svg width="800" height="600" xmlns="http://www.w3.org/2000/svg" stroke="null">
 <g stroke="null">
  <title stroke="null">Layer 1</title>
  <path fill="none" stroke="#000" id="svg_1" d="m-150,108c0,-1 0,-2 0,-5l4,-6l6,-2"/>
  <path stroke="#000" d="m452.72643,113.99999c0,0.98504 0,3.94015 0,17.73069c0,21.67084 4.18736,53.16949 5.64288,87.6684c1.32924,31.50586 2.39233,62.96146 4.7024,80.77313c2.41853,18.64786 5.81159,41.34157 9.40481,64.02748c2.96064,18.69213 5.17104,30.47507 5.64288,36.44641c0.38787,4.90842 1.88096,9.85038 1.88096,14.77557c0,1.97008 0,4.92519 0,5.91023c0,1.97008 0,3.94015 0,5.91023c0,0.98504 0.13851,2.14058 -0.94048,2.95511c-1.70603,1.2879 -2.71002,4.12758 -5.64288,5.91023c-1.81888,1.10555 -5.5085,2.55428 -12.22625,3.94015c-8.35586,1.72382 -17.86913,2.95511 -21.63105,2.95511c-1.88096,0 -3.76192,0 -5.64288,0c-2.82144,0 -6.61063,0.40988 -9.40481,0c-6.78063,-0.99466 -9.57974,-3.63729 -11.28577,-4.92519c-1.07899,-0.81453 -1.21595,-2.2586 -1.88096,-2.95511c-0.66501,-0.69651 -0.54521,-4.09467 -2.82144,-9.85038c-1.60956,-4.0699 -2.82144,-6.89527 -2.82144,-8.86534c0,-1.97008 -1.88096,-3.94015 -1.88096,-5.91023c0,-0.98504 -0.27547,-2.2586 -0.94048,-2.95511c-1.33004,-1.39306 0,-3.94015 0,-6.89527l0,-0.98504l-1.88096,-0.98504l0,-0.98504" id="svg_31" stroke-width="10" fill="none"/>
 </g>

</svg>