<svg width="800" height="600" xmlns="http://www.w3.org/2000/svg" stroke="null">
 <g stroke="null">
  <title stroke="null">Layer 1</title>
  <path d="m-150,108c0,-1 0,-2 0,-5l4,-6l6,-2" id="svg_1" stroke="#000" fill="none"/>
  <polyline stroke-linecap="round" id="svg_20" points="799,174 799,173 " stroke-width="10" stroke="#000" fill="none"/>
  <path d="m597,237c0,-1 -0.04834,-1.30649 -5,-2c-7.20972,-1.00977 -10.01361,-1.67007 -14,-2c-6.06201,-0.50171 -10,-2 -13,-2c-4,0 -7,0 -8,0c-1,0 -2.29291,-0.70709 -3,0c-0.70709,0.70709 -0.9176,2.38687 -2,5c-1.14804,2.77164 -0.9725,4.64749 -2,9c-0.91901,3.89301 0,5 0,7c0,1 0,2 0,4c0,2 0,4 0,7c0,4 0.83771,8.83771 4,12c3.16229,3.16229 4.297,5.61383 7,8c1.67633,1.47983 3.04291,0.71021 4,1c3.45087,1.04483 4,2 10,2c7,0 13,0 22,0c4,0 8.15222,-0.76538 10,0c1.30658,0.5412 2,2 2,4c0,1 0,3 0,7c0,3 -1.54126,7.51871 -6,11c-4.59601,3.58844 -17.92804,7.41821 -40,11c-27.91904,4.53064 -59.98828,8.49994 -92,9c-28.99646,0.45297 -65,0 -105,0c-61,0 -99.86769,1.15631 -127,-8c-17.80193,-6.0076 -22.32411,-15.74911 -30,-26c-7.31644,-9.77087 -12.60419,-18.28052 -16,-28c-2.00627,-5.74237 -3,-11 -3,-14l-2,-1" id="svg_47" stroke-width="10" stroke="#000" fill="none"/>
  <polyline stroke-linecap="round" id="svg_50" points="366,368 366,369 " stroke-width="10" stroke="#000" fill="none"/>
  <path stroke="#000" d="m439,368c-1.5,0 -3,0 -3,1l0,2" id="svg_51" stroke-width="10" fill="none"/>
 </g>

</svg>