<svg width="800" height="600" xmlns="http://www.w3.org/2000/svg" stroke="null">
 <g stroke="null">
  <title stroke="null">Layer 1</title>
  <path d="m-150,108c0,-1 0,-2 0,-5l4,-6l6,-2" id="svg_1" stroke="#000" fill="none"/>
  <path d="m378,312c0,-2 0,-4 0,-10c0,-4 0,-13 0,-21c0,-7 0,-16 0,-25c0,-4 0,-8 0,-12c0,-3 -0.42029,-9.15688 2,-15c1.71143,-4.13171 4.44797,-10.44547 11,-18c7.41275,-8.54698 20.73657,-18.57718 29,-22c5.84314,-2.4203 11.95712,-3.24541 17,-4c9.93921,-1.48724 25,-4 37,-4c10,0 17,-2 23,-2c3,0 4,0 6,0c2,0 5.22885,0.72961 10,5c3.16132,2.82951 4.87781,7.00749 5,8c0.50378,4.09221 2.54895,6.81401 4,12c1.63904,5.85777 2.34515,14.17697 4,19c1.45135,4.23007 2.05444,7.09023 3,12c1.01837,5.28799 4.08557,10.96394 7,18c2.06079,4.97525 2,10 2,13c0,6 0,9 0,15c0,3 -1,4 -2,5c-1,1 -1.54913,1.95517 -5,3c-2.87128,0.86935 -7,0 -14,0c-18,0 -29.45023,-4.26404 -38,-10c-5.31735,-3.56735 -9.9176,-8.38687 -11,-11c-0.76538,-1.84775 -0.62149,-6.16049 -2,-12c-1.0275,-4.35251 -2,-7 -2,-11c0,-3 -2.82843,-8.17157 0,-11c0.70709,-0.70711 5,-2 10,-2c2,0 3,0 4,0c1,0 2,1 3,5c1,4 2.49347,7.87856 3,11c0.32037,1.97418 0,4 0,6c0,2 0,8 0,11c0,4 -4,10 -7,13c-2,2 -3.01932,2.7226 -5,3c-7.20975,1.00977 -18.01886,2.66156 -39,4c-25.02899,1.59668 -64,2 -90,2c-17,0 -27,0 -33,0c-6,0 -12.97418,1.24783 -31,3c-23.97021,2.32999 -47,2 -60,2l-3,0" id="svg_2" stroke-width="10" stroke="#000" fill="none"/>
 </g>

</svg>