<svg width="800" height="600" xmlns="http://www.w3.org/2000/svg">

 <g>
  <title>Layer 1</title>
  <path stroke-width="10" d="m290.39999,169.40001c0,0 1,0 2,0c1,0 2,0 3,0c2,0 3.07611,-0.38269 4,0c1.30655,0.5412 2,1 3,1c0,0 1,0 2,0c1,0 2,0 3,0c2,0 3,0 5,0c2,0 5,0 9,0c2,0 5,0 8,0c1,0 2,0 4,0c1,0 1.22836,-1.14806 4,0c1.30655,0.5412 4.01498,0.75563 6,1c4.09222,0.50377 7.0535,0.5405 9,1c2.17624,0.51375 2.82376,1.48625 5,2c0.97324,0.22975 1.41528,0.18875 2,1c1.84903,2.56537 4.02676,1.77025 5,2c2.17624,0.51375 4.0535,0.5405 6,1c2.17624,0.51375 4.76108,1.41589 8,3c2.84073,1.38936 5,1 9,1c3,0 4.82376,0.48625 7,1c1.9465,0.4595 3,0 4,0c2,0 3,0 5,0c2,0 4,0 7,0c1,0 2,0 3,0c1,0 1,0 3,0c2,0 4,0 6,0c1,0 3,0 4,0c0,0 1,0 4,0c2,0 6,0 7,0c1,0 -0.69345,0.4588 -2,1c-1.84775,0.76537 -3.90778,1.49623 -8,2c-0.99249,0.12218 -2,1 -5,2c0,0 -2.07611,-0.38269 -3,0c-1.30655,0.5412 -2.08026,0.31075 -5,1c-2.17624,0.51375 -4,1 -6,1c-2,0 -4,0 -6,0c-1,0 -3.69345,0.4588 -5,1c-1.84775,0.76537 -6,0 -8,0c-2,0 -4,0 -7,0c-4,0 -8.05414,-0.56732 -11,0c-5.28799,1.01837 -8,3 -13,3c-4,0 -8.02997,0.51126 -12,1c-4.09222,0.50377 -6.10699,2.08099 -10,3c-2.17624,0.51375 -5.90778,3.49623 -10,4c-2.97751,0.36655 -7.64749,2.97252 -12,4c-3.89301,0.91901 -11.0769,2.73145 -15,4c-5.12393,1.65685 -8.48532,4.85112 -13,6.99998c-3.7229,1.77199 -8.37201,2.3851 -12,5c-2.29453,1.65381 -5.34619,3.70546 -7,6c-1.30746,1.814 -1.87766,5.06601 -3,7c-1.80972,3.11848 -2.2565,5.797 -3,7c-1.66251,2.68999 -0.5405,8.0535 -1,10c-0.51373,2.17625 -1.67963,5.02582 -2,7c-0.50653,3.12143 -2,5 -2,7c0,2 0,4 0,6c0,2 0,7 0,9c0,3 0,6 0,9c0,2 0,4 0,7c0,3 0,5 0,7c0,2 -0.36655,6.02249 0,9c0.50378,4.09222 2.11588,5.96384 3,9c1.15277,3.95868 2,7 3,10c1,3 2.78986,6.07843 4,9c0.85571,2.06586 3,7 4,10c1,3 3.4588,5.69345 4,7c1.14804,2.77164 2.87766,6.06601 4,8c1.80972,3.11847 2.33749,5.31 4,8c1.487,2.40601 2.42282,5.44806 4,8c1.17557,1.9021 4,3 5,5c1,2 1.42007,3.78381 4,7c1.39917,1.74423 2.71411,3.21167 5,6c1.79318,2.18735 3.19028,3.88153 5,7c1.12234,1.93399 3.95517,2.54916 5,6c0.28979,0.95709 2.69254,3.186 4,5c1.65381,2.29453 5.61731,6.07611 6,7c0.5412,1.30655 1.52017,1.32367 3,3c2.38617,2.703 6,3 8,5c1,1 4.41885,2.41885 6,4c1.58115,1.58115 3.85272,4.1731 5,5c1.814,1.30746 4.31,1.33749 7,3c1.203,0.7435 0.82376,1.48627 3,2c1.9465,0.4595 2.87857,2.49347 6,3c0.98709,0.16019 4.41208,-0.03146 8,2c2.4613,1.39355 5,2 10,2c2,0 5.07611,-0.38269 6,0c1.30655,0.5412 4,1 5,1c3,0 6,0 9,0c2,0 7,0 10,0c3,0 5,0 8,0c3,0 6,0 8,0c3,0 7,0 8,0c2,0 5,0 7,0c1,0 2.82376,-0.48627 5,-1c1.9465,-0.4595 4.10699,0.91901 8,0c2.17624,-0.51373 4.31,-0.33749 7,-2c1.203,-0.7435 2,-1 3,-1c2,0 4,-1 6,-1c1,0 2,0 4,-1l0,-1" id="svg_9" stroke="#000" fill="none"/>
  <path stroke-width="5" d="m374.39999,312.39999c0,0 -0.70709,-0.29291 0,-1c0.70709,-0.70709 1,-1 2,-1c1,0 1.29291,0.29291 2,1c0.70709,0.70709 0,2 0,3c0,0 0,1 0,2c0,1 0,2 -1,2c-1,0 -2,0 -2,-1c0,-1 0,-2 0,-3c0,-1 1,-3 0,-3c-1,0 0,2 -1,2c0,0 -1.4588,-0.69345 -2,-2c-0.38269,-0.92389 1,-1 2,-1c0,0 4,0 5,0c1,0 2.29291,0.29291 3,1c0.70709,0.70709 0,2 0,4c0,1 0,2 0,3c0,0 0,1 -2,1c-1,0 -2.07611,-0.61731 -3,-1c-1.30655,-0.5412 -2.29291,-1.29291 -3,-2c-0.70709,-0.70709 0,-1 0,-2c0,0 0,-1 0,-1c1,0 2,1 3,1c0,0 0,1 0,2c0,2 0,3 0,4c0,2 0.70709,3.29291 0,4c-0.70709,0.70709 -2.4588,0.30655 -3,-1c-0.38269,-0.92389 0,-3 0,-4c0,-1 0,-1 0,-2c0,-1 1,-1 1,-2c0,-1 1,-1 2,-1c1,0 1,1 1,1c1,0 0.29291,1.29291 1,2c0.70709,0.70709 1,1 1,1c0,1 -1.29291,1.70709 -2,1c-0.70709,-0.70709 -1.4588,-0.69345 -2,-2c-0.38269,-0.92389 0,-2 0,-3c0,0 -0.70709,-1.29291 0,-2c0.70709,-0.70709 2,0 2,0c1,0 0.29291,1.29291 1,2c0.70709,0.70709 1,0 1,1c0,1 0,2 0,3c0,0 0,1 0,2c0,1 -0.29291,1.29291 -1,2c-0.70709,0.70709 -1,0 -1,0c-1,0 -2,-2 -2,-3c0,-1 0,-1 0,-3c0,-1 0,-2 0,-2c0,-1 0,-2 1,-2c1,0 0.29291,0.29291 1,1c0.70709,0.70709 1.29291,0.29291 2,1c0.70709,0.70709 1,1 1,2c0,1 0,2 0,3c0,1 0,2 0,3c0,0 0,1 -1,1c-1,0 -2,-1 -2,-1c0,-1 0,-2 0,-3c0,-1 0,-1 0,-2c0,-1 0,-2 0,-3c0,-1 0,-2 0,-3c0,-1 0,-1 1,-1c1,0 2,0 2,1c0,1 0,2 0,3c0,1 0,2 0,3c0,1 0.70709,1.29291 0,2c-0.70709,0.70709 -2,0 -3,0c0,0 -0.69345,-0.4588 -2,-1c-0.92389,-0.38269 -2,0 -2,0c0,-1 0,-2 0,-4c0,0 0,-2 0,-3c0,-1 0,-1 0,-1c1,0 2.29291,-0.70709 3,0c0.70709,0.70709 1,1 1,2c0,0 0,1 0,2c0,1 0,2 0,3c0,1 0,1 0,2c0,2 0,3 0,3c0,0 -1.07611,0.38269 -2,0c-1.30655,-0.5412 -2,-2 -2,-3c0,-1 0,-1 0,-2c0,-1 -1,-1 -1,-2c0,-1 0,-1 0,-3l0,-1" id="svg_10" stroke="#000" fill="none"/>
 </g>
</svg>